happy-times-NG_regular_master.ufo.ufo
<glyph name="exclam" format="1">
  <advance width="268"/>
  <unicode hex="0021"/>
  <outline>
    <contour>
      <point x="153" y="204" type="line"/>
      <point x="189" y="750" type="line"/>
      <point x="189" y="750"/>
      <point x="79" y="750"/>
      <point x="79" y="750" type="curve"/>
      <point x="115" y="204" type="line"/>
    </contour>
    <contour>
      <point x="74" y="0" type="line"/>
      <point x="194" y="0" type="line"/>
      <point x="194" y="120" type="line"/>
      <point x="74" y="120" type="line"/>
    </contour>
  </outline>
</glyph>
<glyph name="ampersand" format="1">
  <advance width="785"/>
  <unicode hex="0026"/>
  <outline>
    <contour>
      <point x="461" y="26"/>
      <point x="514" y="-10"/>
      <point x="596" y="-10" type="curve"/>
      <point x="686" y="-10"/>
      <point x="739" y="46"/>
      <point x="771" y="122" type="curve"/>
      <point x="743" y="150" type="line"/>
      <point x="720" y="84"/>
      <point x="686" y="54"/>
      <point x="632" y="54" type="curve"/>
      <point x="564" y="54"/>
      <point x="531" y="97"/>
      <point x="402" y="292" type="curve" smooth="yes"/>
      <point x="324" y="410"/>
      <point x="292" y="489"/>
      <point x="292" y="574" type="curve"/>
      <point x="292" y="658"/>
      <point x="332" y="710"/>
      <point x="386" y="710" type="curve"/>
      <point x="432" y="710"/>
      <point x="462" y="683"/>
      <point x="462" y="632" type="curve"/>
      <point x="462" y="519"/>
      <point x="315" y="463"/>
      <point x="222" y="415" type="curve" smooth="yes"/>
      <point x="170" y="388"/>
      <point x="34" y="314"/>
      <point x="34" y="178" type="curve"/>
      <point x="34" y="58"/>
      <point x="109" y="-10"/>
      <point x="234" y="-10" type="curve"/>
      <point x="460" y="-10"/>
      <point x="568" y="216"/>
      <point x="628" y="432" type="curve"/>
      <point x="638" y="442" type="line"/>
      <point x="744" y="442" type="line"/>
      <point x="744" y="476" type="line"/>
      <point x="493" y="476" type="line"/>
      <point x="493" y="442" type="line"/>
      <point x="573" y="442" type="line"/>
      <point x="583" y="432" type="line"/>
      <point x="538" y="235"/>
      <point x="432" y="66"/>
      <point x="287" y="66" type="curve"/>
      <point x="190" y="66"/>
      <point x="138" y="129"/>
      <point x="138" y="214" type="curve"/>
      <point x="138" y="299"/>
      <point x="202" y="367"/>
      <point x="279" y="399" type="curve" smooth="yes"/>
      <point x="329" y="420"/>
      <point x="518" y="500"/>
      <point x="518" y="638" type="curve"/>
      <point x="518" y="727"/>
      <point x="449" y="760"/>
      <point x="382" y="760" type="curve"/>
      <point x="264" y="760"/>
      <point x="196" y="667"/>
      <point x="196" y="552" type="curve"/>
      <point x="196" y="459"/>
      <point x="239" y="358"/>
      <point x="322" y="234" type="curve" smooth="yes"/>
    </contour>
  </outline>
</glyph>
<glyph name="parenleft" format="1">
  <advance width="372"/>
  <unicode hex="0028"/>
  <outline>
    <contour>
      <point x="344" y="-260" type="curve"/>
      <point x="358" y="-236" type="line"/>
      <point x="244" y="-170"/>
      <point x="124" y="-34"/>
      <point x="124" y="250" type="curve"/>
      <point x="124" y="534"/>
      <point x="244" y="670"/>
      <point x="358" y="736" type="curve"/>
      <point x="344" y="760" type="line"/>
      <point x="204" y="692"/>
      <point x="44" y="534"/>
      <point x="44" y="250" type="curve"/>
      <point x="44" y="-34"/>
      <point x="204" y="-192"/>
    </contour>
  </outline>
</glyph>
<glyph name="parenright" format="1">
  <advance width="372"/>
  <unicode hex="0029"/>
  <outline>
    <contour>
      <point x="28" y="-260" type="line"/>
      <point x="168" y="-192"/>
      <point x="328" y="-34"/>
      <point x="328" y="250" type="curve"/>
      <point x="328" y="534"/>
      <point x="168" y="692"/>
      <point x="28" y="760" type="curve"/>
      <point x="14" y="736" type="line"/>
      <point x="128" y="670"/>
      <point x="248" y="534"/>
      <point x="248" y="250" type="curve"/>
      <point x="248" y="-34"/>
      <point x="128" y="-170"/>
      <point x="14" y="-236" type="curve"/>
    </contour>
  </outline>
</glyph>
<glyph name="plus" format="1">
  <advance width="570"/>
  <unicode hex="002B"/>
  <outline>
    <contour>
      <point x="536" y="329" type="line"/>
      <point x="313" y="329" type="line"/>
      <point x="303" y="339" type="line"/>
      <point x="303" y="562" type="line"/>
      <point x="267" y="562" type="line"/>
      <point x="267" y="339" type="line"/>
      <point x="257" y="329" type="line"/>
      <point x="34" y="329" type="line"/>
      <point x="34" y="295" type="line"/>
      <point x="257" y="295" type="line"/>
      <point x="267" y="285" type="line"/>
      <point x="267" y="62" type="line"/>
      <point x="303" y="62" type="line"/>
      <point x="303" y="285" type="line"/>
      <point x="313" y="295" type="line"/>
      <point x="536" y="295" type="line"/>
    </contour>
  </outline>
</glyph>
<glyph name="hyphen" format="1">
  <advance width="268"/>
  <unicode hex="002D"/>
  <outline>
    <contour>
      <point x="14" y="233" type="line"/>
      <point x="254" y="233" type="line"/>
      <point x="254" y="267" type="line"/>
      <point x="14" y="267" type="line"/>
    </contour>
  </outline>
</glyph>
<glyph name="slash" format="1">
  <advance width="268"/>
  <unicode hex="002F"/>
  <outline>
    <contour>
      <point x="-6" y="-250" type="line"/>
      <point x="34" y="-250" type="line"/>
      <point x="274" y="750" type="line"/>
      <point x="234" y="750" type="line"/>
    </contour>
  </outline>
</glyph>
<glyph name="zero" format="1">
  <advance width="576"/>
  <unicode hex="0030"/>
  <outline>
    <contour>
      <point x="300" y="28" type="curve" smooth="yes"/>
      <point x="201" y="28"/>
      <point x="160" y="180"/>
      <point x="160" y="402" type="curve" smooth="yes"/>
      <point x="160" y="597"/>
      <point x="192" y="722"/>
      <point x="276" y="722" type="curve" smooth="yes"/>
      <point x="382" y="722"/>
      <point x="416" y="570"/>
      <point x="416" y="348" type="curve" smooth="yes"/>
      <point x="416" y="142"/>
      <point x="379" y="28"/>
    </contour>
    <contour>
      <point x="286" y="-10" type="curve" smooth="yes"/>
      <point x="451" y="-10"/>
      <point x="532" y="168"/>
      <point x="532" y="386" type="curve" smooth="yes"/>
      <point x="532" y="568"/>
      <point x="468" y="760"/>
      <point x="290" y="760" type="curve" smooth="yes"/>
      <point x="125" y="760"/>
      <point x="44" y="596"/>
      <point x="44" y="364" type="curve" smooth="yes"/>
      <point x="44" y="196"/>
      <point x="109" y="-10"/>
    </contour>
    <contour>
      <point x="279" y="748" type="move" name="top"/>
    </contour>
    <contour>
      <point x="279" y="-11" type="move" name="bottom"/>
    </contour>
  </outline>
</glyph>
<glyph name="one" format="1">
  <advance width="422"/>
  <unicode hex="0031"/>
  <outline>
    <contour>
      <point x="70" y="631" type="line"/>
      <point x="158" y="669" type="line"/>
      <point x="168" y="659" type="line"/>
      <point x="168" y="0" type="line"/>
      <point x="268" y="0" type="line"/>
      <point x="268" y="750" type="line"/>
      <point x="258" y="760" type="line"/>
      <point x="54" y="665" type="line"/>
    </contour>
    <contour>
      <point x="168" y="44" type="line"/>
      <point x="158" y="34" type="line"/>
      <point x="68" y="34" type="line"/>
      <point x="68" y="0" type="line"/>
      <point x="368" y="0" type="line"/>
      <point x="368" y="34" type="line"/>
      <point x="278" y="34" type="line"/>
      <point x="268" y="44" type="line"/>
    </contour>
  </outline>
</glyph>
<glyph name="two" format="1">
  <advance width="502"/>
  <unicode hex="0032"/>
  <outline>
    <contour>
      <point x="14" y="0" type="line"/>
      <point x="448" y="0" type="line"/>
      <point x="448" y="208" type="line"/>
      <point x="416" y="208" type="line"/>
      <point x="416" y="188" type="line" smooth="yes"/>
      <point x="416" y="102"/>
      <point x="389" y="84"/>
      <point x="312" y="84" type="curve" smooth="yes"/>
      <point x="152" y="84" type="line"/>
      <point x="142" y="94" type="line"/>
      <point x="282" y="222"/>
      <point x="426" y="395"/>
      <point x="426" y="562" type="curve"/>
      <point x="426" y="676"/>
      <point x="364" y="760"/>
      <point x="232" y="760" type="curve"/>
      <point x="82" y="760"/>
      <point x="27" y="612"/>
      <point x="20" y="550" type="curve"/>
      <point x="42" y="534" type="line"/>
      <point x="62" y="600"/>
      <point x="102" y="666"/>
      <point x="196" y="666" type="curve"/>
      <point x="296" y="666"/>
      <point x="342" y="606"/>
      <point x="342" y="520" type="curve"/>
      <point x="342" y="374"/>
      <point x="219" y="220"/>
      <point x="14" y="10" type="curve"/>
    </contour>
    <contour>
      <point x="235" y="216" type="move" name="top"/>
    </contour>
    <contour>
      <point x="235" y="749" type="move" name="bottom"/>
    </contour>
  </outline>
</glyph>
<glyph name="three" format="1">
  <advance width="482"/>
  <unicode hex="0033"/>
  <outline>
    <contour>
      <point x="438" y="260" type="curve"/>
      <point x="438" y="358"/>
      <point x="386" y="416"/>
      <point x="314" y="441" type="curve"/>
      <point x="314" y="451" type="line"/>
      <point x="374" y="485"/>
      <point x="410" y="535"/>
      <point x="410" y="612" type="curve"/>
      <point x="410" y="700"/>
      <point x="342" y="760"/>
      <point x="244" y="760" type="curve"/>
      <point x="102" y="760"/>
      <point x="52" y="636"/>
      <point x="38" y="572" type="curve"/>
      <point x="60" y="556" type="line"/>
      <point x="78" y="618"/>
      <point x="116" y="678"/>
      <point x="200" y="678" type="curve"/>
      <point x="278" y="678"/>
      <point x="320" y="628"/>
      <point x="320" y="568" type="curve"/>
      <point x="320" y="461"/>
      <point x="238" y="424"/>
      <point x="154" y="414" type="curve"/>
      <point x="154" y="380" type="line"/>
      <point x="284" y="380"/>
      <point x="362" y="318"/>
      <point x="362" y="198" type="curve"/>
      <point x="362" y="88"/>
      <point x="292" y="36"/>
      <point x="224" y="36" type="curve"/>
      <point x="178" y="36"/>
      <point x="150" y="61"/>
      <point x="132" y="81" type="curve" smooth="yes"/>
      <point x="82" y="135" type="line"/>
      <point x="14" y="67" type="line"/>
      <point x="14" y="51" type="line"/>
      <point x="46" y="12"/>
      <point x="94" y="-10"/>
      <point x="166" y="-10" type="curve"/>
      <point x="322" y="-10"/>
      <point x="438" y="95"/>
    </contour>
    <contour>
      <point x="212" y="216" type="move" name="top"/>
    </contour>
    <contour>
      <point x="212" y="749" type="move" name="bottom"/>
    </contour>
  </outline>
</glyph>
<glyph name="four" format="1">
  <advance width="518"/>
  <unicode hex="0034"/>
  <outline>
    <contour>
      <point x="86" y="270" type="line"/>
      <point x="86" y="280" type="line"/>
      <point x="300" y="580" type="line" smooth="yes"/>
      <point x="310" y="580" type="line"/>
      <point x="310" y="0" type="line"/>
      <point x="400" y="0" type="line"/>
      <point x="400" y="750" type="line"/>
      <point x="360" y="750" type="line"/>
      <point x="14" y="270" type="line"/>
    </contour>
    <contour>
      <point x="14" y="186" type="line"/>
      <point x="504" y="186" type="line"/>
      <point x="504" y="270" type="line"/>
      <point x="14" y="270" type="line"/>
    </contour>
  </outline>
</glyph>
<glyph name="five" format="1">
  <advance width="506"/>
  <unicode hex="0035"/>
  <outline>
    <contour>
      <point x="224" y="46" type="curve"/>
      <point x="194" y="46"/>
      <point x="174" y="57"/>
      <point x="152" y="81" type="curve" smooth="yes"/>
      <point x="102" y="135" type="line"/>
      <point x="34" y="67" type="line"/>
      <point x="34" y="51" type="line"/>
      <point x="60" y="20"/>
      <point x="104" y="-10"/>
      <point x="186" y="-10" type="curve"/>
      <point x="342" y="-10"/>
      <point x="458" y="115"/>
      <point x="458" y="270" type="curve" smooth="yes"/>
      <point x="458" y="440"/>
      <point x="306" y="524"/>
      <point x="180" y="540" type="curve"/>
      <point x="170" y="550" type="line"/>
      <point x="222" y="666" type="line"/>
      <point x="432" y="666" type="line"/>
      <point x="472" y="750" type="line"/>
      <point x="208" y="750" type="line"/>
      <point x="78" y="466" type="line"/>
      <point x="88" y="456" type="line"/>
      <point x="234" y="456"/>
      <point x="382" y="360"/>
      <point x="382" y="210" type="curve" smooth="yes"/>
      <point x="382" y="108"/>
      <point x="312" y="46"/>
    </contour>
  </outline>
</glyph>
<glyph name="six" format="1">
  <advance width="532"/>
  <unicode hex="0036"/>
  <outline>
    <contour>
      <point x="268" y="-10" type="curve" smooth="yes"/>
      <point x="413" y="-10"/>
      <point x="490" y="104"/>
      <point x="490" y="246" type="curve"/>
      <point x="490" y="410"/>
      <point x="398" y="480"/>
      <point x="308" y="480" type="curve" smooth="yes"/>
      <point x="240" y="480"/>
      <point x="198" y="442"/>
      <point x="182" y="428" type="curve"/>
      <point x="152" y="428" type="line"/>
      <point x="152" y="362" type="line"/>
      <point x="166" y="382"/>
      <point x="204" y="424"/>
      <point x="260" y="424" type="curve" smooth="yes"/>
      <point x="340" y="424"/>
      <point x="374" y="356"/>
      <point x="374" y="222" type="curve" smooth="yes"/>
      <point x="374" y="116"/>
      <point x="352" y="28"/>
      <point x="280" y="28" type="curve"/>
      <point x="206" y="28"/>
      <point x="160" y="120"/>
      <point x="160" y="280" type="curve" smooth="yes"/>
      <point x="160" y="541"/>
      <point x="276" y="710"/>
      <point x="498" y="740" type="curve"/>
      <point x="484" y="770" type="line"/>
      <point x="254" y="750"/>
      <point x="44" y="564"/>
      <point x="44" y="286" type="curve" smooth="yes"/>
      <point x="44" y="90"/>
      <point x="143" y="-10"/>
    </contour>
  </outline>
</glyph>
<glyph name="seven" format="1">
  <advance width="508"/>
  <unicode hex="0037"/>
  <outline>
    <contour>
      <point x="204" y="666" type="curve" smooth="yes"/>
      <point x="418" y="666" type="line"/>
      <point x="428" y="656" type="line"/>
      <point x="150" y="0" type="line"/>
      <point x="260" y="0" type="line"/>
      <point x="494" y="740" type="line"/>
      <point x="484" y="750" type="line"/>
      <point x="34" y="750" type="line"/>
      <point x="34" y="540" type="line"/>
      <point x="72" y="540" type="line"/>
      <point x="72" y="568" type="line"/>
      <point x="72" y="656"/>
      <point x="100" y="666"/>
    </contour>
  </outline>
</glyph>
<glyph name="eight" format="1">
  <advance width="496"/>
  <unicode hex="0038"/>
  <outline>
    <contour>
      <point x="146" y="604" type="curve" smooth="yes"/>
      <point x="146" y="666"/>
      <point x="184" y="722"/>
      <point x="254" y="722" type="curve" smooth="yes"/>
      <point x="324" y="722"/>
      <point x="362" y="666"/>
      <point x="362" y="604" type="curve" smooth="yes"/>
      <point x="362" y="510"/>
      <point x="318" y="464"/>
      <point x="244" y="416" type="curve"/>
      <point x="292" y="416" type="line"/>
      <point x="168" y="500"/>
      <point x="146" y="540"/>
    </contour>
    <contour>
      <point x="34" y="160" type="curve" smooth="yes"/>
      <point x="34" y="54"/>
      <point x="124" y="-10"/>
      <point x="238" y="-10" type="curve" smooth="yes"/>
      <point x="388" y="-10"/>
      <point x="462" y="78"/>
      <point x="462" y="178" type="curve" smooth="yes"/>
      <point x="462" y="276"/>
      <point x="390" y="342"/>
      <point x="302" y="406" type="curve"/>
      <point x="302" y="416" type="line"/>
      <point x="376" y="460"/>
      <point x="440" y="504"/>
      <point x="440" y="598" type="curve" smooth="yes"/>
      <point x="440" y="700"/>
      <point x="360" y="760"/>
      <point x="250" y="760" type="curve" smooth="yes"/>
      <point x="144" y="760"/>
      <point x="52" y="696"/>
      <point x="52" y="570" type="curve" smooth="yes"/>
      <point x="52" y="476"/>
      <point x="128" y="412"/>
      <point x="173" y="376" type="curve"/>
      <point x="173" y="366" type="line"/>
      <point x="98" y="318"/>
      <point x="34" y="262"/>
    </contour>
    <contour>
      <point x="248" y="28" type="curve" smooth="yes"/>
      <point x="176" y="28"/>
      <point x="120" y="70"/>
      <point x="120" y="178" type="curve"/>
      <point x="120" y="260"/>
      <point x="158" y="322"/>
      <point x="230" y="366" type="curve"/>
      <point x="182" y="366" type="line"/>
      <point x="316" y="272"/>
      <point x="368" y="228"/>
      <point x="368" y="144" type="curve" smooth="yes"/>
      <point x="368" y="72"/>
      <point x="318" y="28"/>
    </contour>
  </outline>
</glyph>
<glyph name="nine" format="1">
  <advance width="532"/>
  <unicode hex="0039"/>
  <outline>
    <contour>
      <point x="264" y="760" type="curve" smooth="yes"/>
      <point x="119" y="760"/>
      <point x="42" y="646"/>
      <point x="42" y="504" type="curve"/>
      <point x="42" y="350"/>
      <point x="140" y="286"/>
      <point x="224" y="286" type="curve"/>
      <point x="292" y="286"/>
      <point x="334" y="324"/>
      <point x="350" y="338" type="curve"/>
      <point x="380" y="338" type="line"/>
      <point x="380" y="404" type="line"/>
      <point x="366" y="384"/>
      <point x="328" y="346"/>
      <point x="282" y="346" type="curve"/>
      <point x="202" y="346"/>
      <point x="154" y="424"/>
      <point x="154" y="568" type="curve" smooth="yes"/>
      <point x="154" y="654"/>
      <point x="186" y="722"/>
      <point x="244" y="722" type="curve"/>
      <point x="330" y="722"/>
      <point x="372" y="620"/>
      <point x="372" y="470" type="curve" smooth="yes"/>
      <point x="372" y="209"/>
      <point x="256" y="40"/>
      <point x="34" y="10" type="curve"/>
      <point x="48" y="-20" type="line"/>
      <point x="278" y="0"/>
      <point x="488" y="186"/>
      <point x="488" y="464" type="curve" smooth="yes"/>
      <point x="488" y="660"/>
      <point x="389" y="760"/>
    </contour>
  </outline>
</glyph>
<glyph name="colon" format="1">
  <advance width="268"/>
  <unicode hex="003A"/>
  <outline>
    <contour>
      <point x="74" y="0" type="line"/>
      <point x="194" y="0" type="line"/>
      <point x="194" y="120" type="line"/>
      <point x="74" y="120" type="line"/>
    </contour>
    <contour>
      <point x="74" y="380" type="line"/>
      <point x="194" y="380" type="line"/>
      <point x="194" y="500" type="line"/>
      <point x="74" y="500" type="line"/>
    </contour>
  </outline>
</glyph>
<glyph name="semicolon" format="1">
  <advance width="268"/>
  <unicode hex="003B"/>
  <outline>
    <contour>
      <point x="74" y="380" type="line"/>
      <point x="194" y="380" type="line"/>
      <point x="194" y="500" type="line"/>
      <point x="74" y="500" type="line"/>
    </contour>
    <contour>
      <point x="194" y="20" type="curve"/>
      <point x="194" y="120" type="line"/>
      <point x="74" y="120" type="line"/>
      <point x="74" y="0" type="line"/>
      <point x="148" y="0" type="line"/>
      <point x="158" y="-10" type="line"/>
      <point x="152" y="-56"/>
      <point x="126" y="-100"/>
      <point x="72" y="-142" type="curve"/>
      <point x="86" y="-166" type="line"/>
      <point x="154" y="-118"/>
      <point x="194" y="-54"/>
    </contour>
  </outline>
</glyph>
<glyph name="greater" format="1">
  <advance width="514"/>
  <unicode hex="003E"/>
  <outline>
    <contour>
      <point x="34" y="52" type="line"/>
      <point x="500" y="307" type="line"/>
      <point x="500" y="317" type="line"/>
      <point x="34" y="572" type="line"/>
      <point x="34" y="530" type="line"/>
      <point x="424" y="317" type="line"/>
      <point x="424" y="307" type="line"/>
      <point x="34" y="94" type="line"/>
    </contour>
  </outline>
</glyph>
<glyph name="question" format="1">
  <advance width="488"/>
  <unicode hex="003F"/>
  <outline>
    <contour>
      <point x="250" y="760" type="curve"/>
      <point x="378" y="760"/>
      <point x="478" y="686"/>
      <point x="478" y="558" type="curve"/>
      <point x="478" y="424"/>
      <point x="358" y="356"/>
      <point x="263" y="326" type="curve"/>
      <point x="263" y="204" type="line"/>
      <point x="225" y="204" type="line"/>
      <point x="225" y="338" type="line"/>
      <point x="235" y="348" type="line"/>
      <point x="304" y="366"/>
      <point x="372" y="416"/>
      <point x="372" y="526" type="curve"/>
      <point x="372" y="633"/>
      <point x="314" y="722"/>
      <point x="230" y="722" type="curve"/>
      <point x="180" y="722"/>
      <point x="151" y="702"/>
      <point x="134" y="658" type="curve" smooth="yes"/>
      <point x="100" y="568" type="line"/>
      <point x="4" y="556" type="line"/>
      <point x="-6" y="566" type="line"/>
      <point x="6" y="654"/>
      <point x="84" y="760"/>
    </contour>
    <component base="period" xOffset="104"/>
  </outline>
</glyph>
<glyph name="at" format="1">
  <advance width="927"/>
  <unicode hex="0040"/>
  <outline>
    <contour>
      <point x="315" y="102" type="curve"/>
      <point x="315" y="216"/>
      <point x="459" y="478"/>
      <point x="571" y="478" type="curve"/>
      <point x="603" y="478"/>
      <point x="632" y="462"/>
      <point x="632" y="420" type="curve" smooth="yes"/>
      <point x="632" y="310"/>
      <point x="453" y="52"/>
      <point x="359" y="52" type="curve"/>
      <point x="334" y="52"/>
      <point x="315" y="65"/>
    </contour>
    <contour>
      <point x="873" y="310" type="curve"/>
      <point x="873" y="508"/>
      <point x="743" y="664"/>
      <point x="500" y="664" type="curve"/>
      <point x="254" y="664"/>
      <point x="54" y="478"/>
      <point x="54" y="218" type="curve"/>
      <point x="54" y="-52"/>
      <point x="253" y="-187"/>
      <point x="473" y="-187" type="curve" smooth="yes"/>
      <point x="486" y="-187"/>
      <point x="499" y="-186"/>
      <point x="512" y="-185" type="curve"/>
      <point x="512" y="-151" type="line"/>
      <point x="499" y="-152"/>
      <point x="486" y="-153"/>
      <point x="473" y="-153" type="curve" smooth="yes"/>
      <point x="273" y="-153"/>
      <point x="134" y="-32"/>
      <point x="134" y="218" type="curve"/>
      <point x="134" y="448"/>
      <point x="274" y="630"/>
      <point x="500" y="630" type="curve"/>
      <point x="723" y="630"/>
      <point x="835" y="488"/>
      <point x="835" y="310" type="curve"/>
      <point x="835" y="113"/>
      <point x="706" y="39"/>
      <point x="622" y="39" type="curve"/>
      <point x="611" y="49" type="line"/>
      <point x="745" y="510" type="line"/>
      <point x="659" y="510" type="line"/>
      <point x="652" y="488" type="line"/>
      <point x="642" y="488" type="line"/>
      <point x="636" y="494"/>
      <point x="617" y="510"/>
      <point x="573" y="510" type="curve"/>
      <point x="402" y="510"/>
      <point x="215" y="246"/>
      <point x="215" y="88" type="curve"/>
      <point x="215" y="16"/>
      <point x="257" y="-10"/>
      <point x="315" y="-10" type="curve"/>
      <point x="410" y="-10"/>
      <point x="499" y="80"/>
      <point x="583" y="230" type="curve"/>
      <point x="597" y="230" type="line"/>
      <point x="552" y="116" type="line" smooth="yes"/>
      <point x="532" y="65"/>
      <point x="520" y="18"/>
      <point x="552" y="0" type="curve"/>
      <point x="612" y="0" type="line"/>
      <point x="711" y="0"/>
      <point x="873" y="82"/>
    </contour>
  </outline>
</glyph>
<glyph name="A" format="1">
  <advance width="793"/>
  <unicode hex="0041"/>
  <outline>
    <contour>
      <point x="534" y="289" type="line"/>
      <point x="212" y="289" type="line"/>
      <point x="212" y="235" type="line"/>
      <point x="534" y="235" type="line"/>
    </contour>
    <contour>
      <point x="84" y="44" type="line"/>
      <point x="144" y="44" type="line"/>
      <point x="370" y="584" type="line"/>
      <point x="380" y="584" type="line"/>
      <point x="599" y="44" type="line"/>
      <point x="709" y="44" type="line"/>
      <point x="413" y="760" type="line"/>
      <point x="385" y="760" type="line"/>
    </contour>
    <contour>
      <point x="144" y="44" type="line"/>
      <point x="84" y="44" type="line"/>
      <point x="74" y="34" type="line"/>
      <point x="14" y="34" type="line"/>
      <point x="14" y="0" type="line"/>
      <point x="14" y="0"/>
      <point x="236" y="0"/>
      <point x="236" y="0" type="curve"/>
      <point x="236" y="34" type="line"/>
      <point x="154" y="34" type="line"/>
    </contour>
    <contour>
      <point x="709" y="44" type="line"/>
      <point x="599" y="44" type="line"/>
      <point x="589" y="34" type="line"/>
      <point x="503" y="34" type="line"/>
      <point x="503" y="0" type="line"/>
      <point x="503" y="0"/>
      <point x="779" y="0"/>
      <point x="779" y="0" type="curve"/>
      <point x="779" y="34" type="line"/>
      <point x="719" y="34" type="line"/>
    </contour>
    <contour>
      <point x="398" y="760" type="move" name="top"/>
    </contour>
  </outline>
</glyph>
<glyph name="B" format="1">
  <advance width="714"/>
  <unicode hex="0042"/>
  <outline>
    <contour>
      <point x="54" y="716" type="line"/>
      <point x="144" y="716" type="line"/>
      <point x="154" y="706" type="line"/>
      <point x="154" y="44" type="line"/>
      <point x="144" y="34" type="line"/>
      <point x="54" y="34" type="line"/>
      <point x="54" y="0" type="line"/>
      <point x="396" y="0" type="line" smooth="yes"/>
      <point x="559" y="0"/>
      <point x="670" y="75"/>
      <point x="670" y="202" type="curve"/>
      <point x="670" y="311"/>
      <point x="600" y="366"/>
      <point x="484" y="384" type="curve"/>
      <point x="484" y="394" type="line"/>
      <point x="568" y="406"/>
      <point x="640" y="461"/>
      <point x="640" y="554" type="curve"/>
      <point x="640" y="682"/>
      <point x="528" y="750"/>
      <point x="364" y="750" type="curve" smooth="yes"/>
      <point x="54" y="750" type="line"/>
    </contour>
    <contour>
      <point x="258" y="696" type="line"/>
      <point x="348" y="696" type="line" smooth="yes"/>
      <point x="446" y="696"/>
      <point x="520" y="657"/>
      <point x="520" y="554" type="curve"/>
      <point x="520" y="450"/>
      <point x="446" y="408"/>
      <point x="348" y="408" type="curve" smooth="yes"/>
      <point x="258" y="408" type="line"/>
    </contour>
    <contour>
      <point x="380" y="354" type="line" smooth="yes"/>
      <point x="478" y="354"/>
      <point x="550" y="306"/>
      <point x="550" y="202" type="curve"/>
      <point x="550" y="99"/>
      <point x="478" y="54"/>
      <point x="380" y="54" type="curve" smooth="yes"/>
      <point x="258" y="54" type="line"/>
      <point x="258" y="354" type="line"/>
    </contour>
  </outline>
</glyph>
<glyph name="C" format="1">
  <advance width="784"/>
  <unicode hex="0043"/>
  <outline>
    <contour>
      <point x="760" y="150" type="curve"/>
      <point x="732" y="178" type="line"/>
      <point x="668" y="96"/>
      <point x="588" y="50"/>
      <point x="474" y="50" type="curve"/>
      <point x="284" y="50"/>
      <point x="174" y="190"/>
      <point x="174" y="380" type="curve"/>
      <point x="174" y="560"/>
      <point x="263" y="710"/>
      <point x="454" y="710" type="curve"/>
      <point x="574" y="710"/>
      <point x="694" y="654"/>
      <point x="694" y="528" type="curve" smooth="yes"/>
      <point x="694" y="488" type="line"/>
      <point x="732" y="488" type="line"/>
      <point x="732" y="750" type="line"/>
      <point x="732" y="750"/>
      <point x="694" y="750"/>
      <point x="694" y="750" type="curve"/>
      <point x="694" y="706" type="line"/>
      <point x="684" y="706" type="line"/>
      <point x="658" y="720"/>
      <point x="567" y="760"/>
      <point x="454" y="760" type="curve"/>
      <point x="210" y="760"/>
      <point x="54" y="594"/>
      <point x="54" y="365" type="curve"/>
      <point x="54" y="145"/>
      <point x="216" y="-10"/>
      <point x="440" y="-10" type="curve"/>
      <point x="592" y="-10"/>
      <point x="690" y="56"/>
    </contour>
    <contour>
      <point x="394" y="759" type="move" name="top"/>
    </contour>
    <contour>
      <point x="440" y="-10" type="move" name="bottom"/>
    </contour>
  </outline>
</glyph>
<glyph name="D" format="1">
  <advance width="856"/>
  <unicode hex="0044"/>
  <outline>
    <contour>
      <point x="54" y="716" type="line"/>
      <point x="144" y="716" type="line"/>
      <point x="154" y="706" type="line"/>
      <point x="154" y="44" type="line"/>
      <point x="144" y="34" type="line"/>
      <point x="54" y="34" type="line"/>
      <point x="54" y="0" type="line"/>
      <point x="374" y="0" type="line" smooth="yes"/>
      <point x="587" y="0"/>
      <point x="802" y="94"/>
      <point x="802" y="384" type="curve"/>
      <point x="802" y="654"/>
      <point x="617" y="750"/>
      <point x="356" y="750" type="curve" smooth="yes"/>
      <point x="54" y="750" type="line"/>
    </contour>
    <contour>
      <point x="258" y="696" type="line"/>
      <point x="352" y="696" type="line" smooth="yes"/>
      <point x="570" y="696"/>
      <point x="682" y="592"/>
      <point x="682" y="365" type="curve"/>
      <point x="682" y="157"/>
      <point x="571" y="54"/>
      <point x="364" y="54" type="curve" smooth="yes"/>
      <point x="258" y="54" type="line"/>
    </contour>
  </outline>
</glyph>
<glyph name="E" format="1">
  <advance width="723"/>
  <unicode hex="0045"/>
  <outline>
    <contour>
      <point x="259" y="360" type="line"/>
      <point x="511" y="360" type="line"/>
      <point x="521" y="350" type="line"/>
      <point x="521" y="278" type="line"/>
      <point x="559" y="278" type="line"/>
      <point x="559" y="496" type="line"/>
      <point x="521" y="496" type="line"/>
      <point x="521" y="424" type="line"/>
      <point x="511" y="414" type="line"/>
      <point x="259" y="414" type="line"/>
      <point x="259" y="688" type="line"/>
      <point x="495" y="688" type="line" smooth="yes"/>
      <point x="581" y="688"/>
      <point x="603" y="666"/>
      <point x="603" y="580" type="curve" smooth="yes"/>
      <point x="603" y="540" type="line"/>
      <point x="641" y="540" type="line"/>
      <point x="641" y="750" type="line"/>
      <point x="55" y="750" type="line"/>
      <point x="55" y="716" type="line"/>
      <point x="145" y="716" type="line"/>
      <point x="155" y="706" type="line"/>
      <point x="155" y="45" type="line"/>
      <point x="144" y="34" type="line"/>
      <point x="54" y="34" type="line"/>
      <point x="54" y="0" type="line"/>
      <point x="669" y="0" type="line"/>
      <point x="669" y="220" type="line"/>
      <point x="631" y="220" type="line"/>
      <point x="631" y="170" type="line" smooth="yes"/>
      <point x="631" y="84"/>
      <point x="609" y="62"/>
      <point x="523" y="62" type="curve" smooth="yes"/>
      <point x="259" y="62" type="line"/>
    </contour>
    <contour>
      <point x="364" y="760" type="move" name="top"/>
    </contour>
  </outline>
</glyph>
<glyph name="F" format="1">
  <advance width="704"/>
  <unicode hex="0046"/>
  <outline>
    <contour>
      <point x="258" y="360" type="line"/>
      <point x="530" y="360" type="line"/>
      <point x="540" y="350" type="line"/>
      <point x="540" y="278" type="line"/>
      <point x="578" y="278" type="line"/>
      <point x="578" y="496" type="line"/>
      <point x="540" y="496" type="line"/>
      <point x="540" y="424" type="line"/>
      <point x="530" y="414" type="line"/>
      <point x="258" y="414" type="line"/>
      <point x="258" y="688" type="line"/>
      <point x="544" y="688" type="line" smooth="yes"/>
      <point x="630" y="688"/>
      <point x="652" y="666"/>
      <point x="652" y="580" type="curve"/>
      <point x="652" y="540" type="line"/>
      <point x="690" y="540" type="line"/>
      <point x="690" y="750" type="line"/>
      <point x="54" y="750" type="line"/>
      <point x="54" y="716" type="line"/>
      <point x="144" y="716" type="line"/>
      <point x="154" y="706" type="line"/>
      <point x="154" y="44" type="line"/>
      <point x="258" y="44" type="line"/>
    </contour>
    <contour>
      <point x="258" y="44" type="line"/>
      <point x="154" y="44" type="line"/>
      <point x="144" y="34" type="line"/>
      <point x="54" y="34" type="line"/>
      <point x="54" y="0" type="line"/>
      <point x="54" y="0"/>
      <point x="388" y="0"/>
      <point x="388" y="0" type="curve"/>
      <point x="388" y="34" type="line"/>
      <point x="268" y="34" type="line"/>
    </contour>
  </outline>
</glyph>
<glyph name="G" format="1">
  <advance width="844"/>
  <unicode hex="0047"/>
  <outline>
    <contour>
      <point x="702" y="72" type="line"/>
      <point x="702" y="0" type="line"/>
      <point x="740" y="0" type="line"/>
      <point x="740" y="322" type="line"/>
      <point x="750" y="332" type="line"/>
      <point x="810" y="332" type="line"/>
      <point x="810" y="366" type="line"/>
      <point x="556" y="366" type="line"/>
      <point x="556" y="332" type="line"/>
      <point x="646" y="332" type="line"/>
      <point x="656" y="322" type="line"/>
      <point x="656" y="222" type="line" smooth="yes"/>
      <point x="656" y="110"/>
      <point x="594" y="40"/>
      <point x="474" y="40" type="curve"/>
      <point x="274" y="40"/>
      <point x="174" y="190"/>
      <point x="174" y="380" type="curve"/>
      <point x="174" y="560"/>
      <point x="264" y="710"/>
      <point x="454" y="710" type="curve"/>
      <point x="574" y="710"/>
      <point x="694" y="654"/>
      <point x="694" y="528" type="curve" smooth="yes"/>
      <point x="694" y="488" type="line"/>
      <point x="732" y="488" type="line"/>
      <point x="732" y="750" type="line"/>
      <point x="694" y="750" type="line"/>
      <point x="694" y="706" type="line"/>
      <point x="683" y="706" type="line"/>
      <point x="656" y="720"/>
      <point x="568" y="760"/>
      <point x="454" y="760" type="curve"/>
      <point x="208" y="760"/>
      <point x="54" y="594"/>
      <point x="54" y="366" type="curve"/>
      <point x="54" y="145"/>
      <point x="216" y="-10"/>
      <point x="440" y="-10" type="curve"/>
      <point x="602" y="-10"/>
      <point x="665" y="50"/>
      <point x="692" y="72" type="curve"/>
    </contour>
  </outline>
</glyph>
<glyph name="H" format="1">
  <advance width="896"/>
  <unicode hex="0048"/>
  <outline>
    <contour>
      <point x="676" y="402" type="line"/>
      <point x="205" y="402" type="line"/>
      <point x="205" y="348" type="line"/>
      <point x="676" y="348" type="line"/>
    </contour>
    <contour>
      <point x="258" y="44" type="line"/>
      <point x="258" y="706" type="line"/>
      <point x="258" y="706"/>
      <point x="154" y="706"/>
      <point x="154" y="706" type="curve"/>
      <point x="154" y="44" type="line"/>
    </contour>
    <contour>
      <point x="258" y="44" type="line"/>
      <point x="154" y="44" type="line"/>
      <point x="144" y="34" type="line"/>
      <point x="54" y="34" type="line"/>
      <point x="54" y="0" type="line"/>
      <point x="54" y="0"/>
      <point x="352" y="0"/>
      <point x="352" y="0" type="curve"/>
      <point x="352" y="34" type="line"/>
      <point x="268" y="34" type="line"/>
    </contour>
    <contour>
      <point x="258" y="706" type="line"/>
      <point x="268" y="716" type="line"/>
      <point x="352" y="716" type="line"/>
      <point x="352" y="750" type="line"/>
      <point x="352" y="750"/>
      <point x="54" y="750"/>
      <point x="54" y="750" type="curve"/>
      <point x="54" y="716" type="line"/>
      <point x="144" y="716" type="line"/>
      <point x="154" y="706" type="line"/>
    </contour>
    <contour>
      <point x="742" y="44" type="line"/>
      <point x="742" y="706" type="line"/>
      <point x="742" y="706"/>
      <point x="638" y="706"/>
      <point x="638" y="706" type="curve"/>
      <point x="638" y="44" type="line"/>
    </contour>
    <contour>
      <point x="742" y="44" type="line"/>
      <point x="638" y="44" type="line"/>
      <point x="628" y="34" type="line"/>
      <point x="544" y="34" type="line"/>
      <point x="544" y="0" type="line"/>
      <point x="544" y="0"/>
      <point x="842" y="0"/>
      <point x="842" y="0" type="curve"/>
      <point x="842" y="34" type="line"/>
      <point x="752" y="34" type="line"/>
    </contour>
    <contour>
      <point x="742" y="706" type="line"/>
      <point x="752" y="716" type="line"/>
      <point x="842" y="716" type="line"/>
      <point x="842" y="750" type="line"/>
      <point x="842" y="750"/>
      <point x="544" y="750"/>
      <point x="544" y="750" type="curve"/>
      <point x="544" y="716" type="line"/>
      <point x="628" y="716" type="line"/>
      <point x="638" y="706" type="line"/>
    </contour>
  </outline>
</glyph>
<glyph name="J" format="1">
  <advance width="384"/>
  <unicode hex="004A"/>
  <outline>
    <contour>
      <point x="260" y="194" type="curve" smooth="yes"/>
      <point x="260" y="706" type="line"/>
      <point x="270" y="716" type="line"/>
      <point x="350" y="716" type="line"/>
      <point x="350" y="750" type="line"/>
      <point x="52" y="750" type="line"/>
      <point x="52" y="716" type="line"/>
      <point x="146" y="716" type="line"/>
      <point x="156" y="706" type="line"/>
      <point x="156" y="140" type="line" smooth="yes"/>
      <point x="156" y="34"/>
      <point x="116" y="-32"/>
      <point x="14" y="-52" type="curve" smooth="yes"/>
      <point x="-6" y="-56" type="line"/>
      <point x="6" y="-88" type="line"/>
      <point x="18" y="-86" type="line" smooth="yes"/>
      <point x="199" y="-56"/>
      <point x="260" y="40"/>
    </contour>
  </outline>
</glyph>
<glyph name="K" format="1">
  <advance width="782"/>
  <unicode hex="004B"/>
  <outline>
    <contour>
      <point x="258" y="44" type="line"/>
      <point x="258" y="364" type="line"/>
      <point x="268" y="364" type="line"/>
      <point x="604" y="0" type="line"/>
      <point x="768" y="0" type="line"/>
      <point x="768" y="34" type="line"/>
      <point x="714" y="34" type="line"/>
      <point x="356" y="414" type="line"/>
      <point x="676" y="716" type="line"/>
      <point x="736" y="716" type="line"/>
      <point x="736" y="750" type="line"/>
      <point x="496" y="750" type="line"/>
      <point x="496" y="716" type="line"/>
      <point x="572" y="716" type="line"/>
      <point x="582" y="706" type="line"/>
      <point x="268" y="398" type="line"/>
      <point x="258" y="398" type="line"/>
      <point x="258" y="706" type="line"/>
      <point x="268" y="716" type="line"/>
      <point x="352" y="716" type="line"/>
      <point x="352" y="750" type="line"/>
      <point x="54" y="750" type="line"/>
      <point x="54" y="716" type="line"/>
      <point x="144" y="716" type="line"/>
      <point x="154" y="706" type="line"/>
      <point x="154" y="44" type="line"/>
      <point x="144" y="34" type="line"/>
      <point x="54" y="34" type="line"/>
      <point x="54" y="0" type="line"/>
      <point x="362" y="0" type="line"/>
      <point x="362" y="34" type="line"/>
      <point x="268" y="34" type="line"/>
    </contour>
  </outline>
</glyph>
<glyph name="L" format="1">
  <advance width="683"/>
  <unicode hex="004C"/>
  <outline>
    <contour>
      <point x="259" y="706" type="line"/>
      <point x="155" y="706" type="line"/>
      <point x="155" y="45" type="line"/>
      <point x="144" y="34" type="line"/>
      <point x="54" y="34" type="line"/>
      <point x="54" y="0" type="line"/>
      <point x="649" y="0" type="line"/>
      <point x="649" y="220" type="line"/>
      <point x="611" y="220" type="line"/>
      <point x="611" y="170" type="line" smooth="yes"/>
      <point x="611" y="84"/>
      <point x="581" y="62"/>
      <point x="495" y="62" type="curve" smooth="yes"/>
      <point x="259" y="62" type="line"/>
    </contour>
    <contour>
      <point x="259" y="706" type="line"/>
      <point x="269" y="716" type="line"/>
      <point x="379" y="716" type="line"/>
      <point x="379" y="750" type="line"/>
      <point x="379" y="750"/>
      <point x="55" y="750"/>
      <point x="55" y="750" type="curve"/>
      <point x="55" y="716" type="line"/>
      <point x="145" y="716" type="line"/>
      <point x="155" y="706" type="line"/>
    </contour>
  </outline>
</glyph>
<glyph name="M" format="1">
  <advance width="1073"/>
  <unicode hex="004D"/>
  <outline>
    <contour>
      <point x="814" y="750" type="line"/>
      <point x="814" y="604" type="line"/>
      <point x="803" y="604" type="line"/>
      <point x="523" y="-11" type="line"/>
      <point x="501" y="-11" type="line"/>
      <point x="227" y="615" type="line"/>
      <point x="216" y="615" type="line"/>
      <point x="216" y="750" type="line"/>
      <point x="276" y="750" type="line"/>
      <point x="533" y="166" type="line"/>
      <point x="544" y="166" type="line"/>
      <point x="804" y="750" type="line"/>
    </contour>
    <contour>
      <point x="216" y="750" type="line"/>
      <point x="216" y="44" type="line"/>
      <point x="226" y="34" type="line"/>
      <point x="320" y="34" type="line"/>
      <point x="320" y="0" type="line"/>
      <point x="54" y="0" type="line"/>
      <point x="54" y="34" type="line"/>
      <point x="144" y="34" type="line"/>
      <point x="154" y="44" type="line"/>
      <point x="154" y="706" type="line"/>
      <point x="144" y="716" type="line"/>
      <point x="54" y="716" type="line"/>
      <point x="54" y="750" type="line"/>
    </contour>
    <contour>
      <point x="814" y="750" type="line"/>
      <point x="1019" y="750" type="line"/>
      <point x="1019" y="716" type="line"/>
      <point x="929" y="716" type="line"/>
      <point x="918" y="705" type="line"/>
      <point x="918" y="45" type="line"/>
      <point x="929" y="34" type="line"/>
      <point x="1019" y="34" type="line"/>
      <point x="1019" y="0" type="line"/>
      <point x="709" y="0" type="line"/>
      <point x="709" y="34" type="line"/>
      <point x="803" y="34" type="line"/>
      <point x="814" y="45" type="line"/>
    </contour>
  </outline>
</glyph>
<glyph name="N" format="1">
  <advance width="872"/>
  <unicode hex="004E"/>
  <outline>
    <contour>
      <point x="216" y="586" type="line"/>
      <point x="226" y="586" type="line"/>
      <point x="714" y="0" type="line"/>
      <point x="748" y="0" type="line"/>
      <point x="748" y="706" type="line"/>
      <point x="758" y="716" type="line"/>
      <point x="838" y="716" type="line"/>
      <point x="838" y="750" type="line"/>
      <point x="582" y="750" type="line"/>
      <point x="582" y="716" type="line"/>
      <point x="676" y="716" type="line"/>
      <point x="686" y="706" type="line"/>
      <point x="686" y="205" type="line"/>
      <point x="676" y="205" type="line"/>
      <point x="222" y="750" type="line"/>
      <point x="24" y="750" type="line"/>
      <point x="24" y="716" type="line"/>
      <point x="84" y="716" type="line"/>
      <point x="154" y="646" type="line"/>
      <point x="154" y="44" type="line"/>
      <point x="144" y="34" type="line"/>
      <point x="50" y="34" type="line"/>
      <point x="50" y="0" type="line"/>
      <point x="320" y="0" type="line"/>
      <point x="320" y="34" type="line"/>
      <point x="226" y="34" type="line"/>
      <point x="216" y="44" type="line"/>
    </contour>
    <contour>
      <point x="434" y="760" type="move" name="top"/>
    </contour>
  </outline>
</glyph>
<glyph name="O" format="1">
  <advance width="828"/>
  <unicode hex="004F"/>
  <outline>
    <contour>
      <point x="424" y="34" type="curve"/>
      <point x="280" y="34"/>
      <point x="174" y="170"/>
      <point x="174" y="380" type="curve" smooth="yes"/>
      <point x="174" y="580"/>
      <point x="264" y="716"/>
      <point x="404" y="716" type="curve"/>
      <point x="548" y="716"/>
      <point x="654" y="580"/>
      <point x="654" y="370" type="curve" smooth="yes"/>
      <point x="654" y="170"/>
      <point x="564" y="34"/>
    </contour>
    <contour>
      <point x="414" y="-10" type="curve"/>
      <point x="621" y="-10"/>
      <point x="774" y="158"/>
      <point x="774" y="386" type="curve" smooth="yes"/>
      <point x="774" y="616"/>
      <point x="631" y="760"/>
      <point x="414" y="760" type="curve"/>
      <point x="207" y="760"/>
      <point x="54" y="592"/>
      <point x="54" y="364" type="curve"/>
      <point x="54" y="134"/>
      <point x="197" y="-10"/>
    </contour>
    <contour>
      <point x="414" y="759" type="move" name="top"/>
    </contour>
  </outline>
</glyph>
<glyph name="P" format="1">
  <advance width="684"/>
  <unicode hex="0050"/>
  <outline>
    <contour>
      <point x="258" y="335" type="line"/>
      <point x="258" y="389" type="line"/>
      <point x="362" y="389" type="line" smooth="yes"/>
      <point x="460" y="389"/>
      <point x="530" y="427"/>
      <point x="530" y="536" type="curve"/>
      <point x="530" y="645"/>
      <point x="460" y="696"/>
      <point x="362" y="696" type="curve" smooth="yes"/>
      <point x="258" y="696" type="line"/>
      <point x="258" y="750" type="line"/>
      <point x="374" y="750" type="line" smooth="yes"/>
      <point x="538" y="750"/>
      <point x="650" y="669"/>
      <point x="650" y="536" type="curve"/>
      <point x="650" y="403"/>
      <point x="538" y="335"/>
      <point x="374" y="335" type="curve" smooth="yes"/>
    </contour>
    <contour>
      <point x="258" y="750" type="line"/>
      <point x="258" y="44" type="line"/>
      <point x="268" y="34" type="line"/>
      <point x="386" y="34" type="line"/>
      <point x="386" y="0" type="line"/>
      <point x="54" y="0" type="line"/>
      <point x="54" y="34" type="line"/>
      <point x="144" y="34" type="line"/>
      <point x="154" y="44" type="line"/>
      <point x="154" y="706" type="line"/>
      <point x="144" y="716" type="line"/>
      <point x="54" y="716" type="line"/>
      <point x="54" y="750" type="line"/>
    </contour>
  </outline>
</glyph>
<glyph name="Q" format="1">
  <advance width="828"/>
  <unicode hex="0051"/>
  <outline>
    <contour>
      <point x="457" y="194" type="line"/>
      <point x="696" y="-44" type="line"/>
      <point x="730" y="-10" type="line"/>
      <point x="491" y="228" type="line"/>
    </contour>
    <component base="O"/>
  </outline>
</glyph>
<glyph name="R" format="1">
  <advance width="788"/>
  <unicode hex="0052"/>
  <outline>
    <contour>
      <point x="258" y="360" type="line"/>
      <point x="334" y="360" type="line"/>
      <point x="619" y="0" type="line"/>
      <point x="794" y="0" type="line"/>
      <point x="794" y="34" type="line"/>
      <point x="724" y="34" type="line"/>
      <point x="455" y="360" type="line"/>
      <point x="455" y="370" type="line"/>
      <point x="550" y="384"/>
      <point x="650" y="444"/>
      <point x="650" y="556" type="curve"/>
      <point x="650" y="670"/>
      <point x="556" y="750"/>
      <point x="386" y="750" type="curve" smooth="yes"/>
      <point x="54" y="750" type="line"/>
      <point x="54" y="716" type="line"/>
      <point x="144" y="716" type="line"/>
      <point x="154" y="706" type="line"/>
      <point x="154" y="44" type="line"/>
      <point x="144" y="34" type="line"/>
      <point x="54" y="34" type="line"/>
      <point x="54" y="0" type="line"/>
      <point x="366" y="0" type="line"/>
      <point x="366" y="34" type="line"/>
      <point x="268" y="34" type="line"/>
      <point x="258" y="44" type="line"/>
    </contour>
    <contour>
      <point x="258" y="696" type="line"/>
      <point x="358" y="696" type="line" smooth="yes"/>
      <point x="460" y="696"/>
      <point x="530" y="658"/>
      <point x="530" y="560" type="curve" smooth="yes"/>
      <point x="530" y="445"/>
      <point x="426" y="394"/>
      <point x="258" y="394" type="curve"/>
    </contour>
  </outline>
</glyph>
<glyph name="S" format="1">
  <advance width="591"/>
  <unicode hex="0053"/>
  <outline>
    <contour>
      <point x="66" y="576" type="curve" smooth="yes"/>
      <point x="66" y="485"/>
      <point x="123" y="437"/>
      <point x="187" y="392" type="curve" smooth="yes"/>
      <point x="317" y="300" type="line" smooth="yes"/>
      <point x="400" y="241"/>
      <point x="425" y="206"/>
      <point x="425" y="142" type="curve" smooth="yes"/>
      <point x="425" y="72"/>
      <point x="376" y="34"/>
      <point x="293" y="34" type="curve" smooth="yes"/>
      <point x="164" y="34"/>
      <point x="92" y="136"/>
      <point x="92" y="226" type="curve" smooth="yes"/>
      <point x="92" y="258" type="line"/>
      <point x="54" y="258" type="line"/>
      <point x="54" y="-1" type="line"/>
      <point x="54" y="-1"/>
      <point x="92" y="-1"/>
      <point x="92" y="-1" type="curve"/>
      <point x="92" y="43" type="line"/>
      <point x="103" y="43" type="line"/>
      <point x="132" y="28"/>
      <point x="205" y="-10"/>
      <point x="303" y="-10" type="curve" smooth="yes"/>
      <point x="439" y="-10"/>
      <point x="537" y="61"/>
      <point x="537" y="192" type="curve"/>
      <point x="537" y="268"/>
      <point x="479" y="333"/>
      <point x="404" y="384" type="curve" smooth="yes"/>
      <point x="270" y="474" type="line" smooth="yes"/>
      <point x="208" y="516"/>
      <point x="164" y="544"/>
      <point x="164" y="612" type="curve"/>
      <point x="164" y="676"/>
      <point x="202" y="716"/>
      <point x="276" y="716" type="curve"/>
      <point x="399" y="716"/>
      <point x="465" y="613"/>
      <point x="465" y="524" type="curve" smooth="yes"/>
      <point x="465" y="490" type="line"/>
      <point x="503" y="490" type="line"/>
      <point x="503" y="750" type="line"/>
      <point x="503" y="750"/>
      <point x="465" y="750"/>
      <point x="465" y="750" type="curve"/>
      <point x="465" y="706" type="line"/>
      <point x="455" y="706" type="line"/>
      <point x="424" y="724"/>
      <point x="364" y="760"/>
      <point x="274" y="760" type="curve"/>
      <point x="164" y="760"/>
      <point x="66" y="706"/>
    </contour>
  </outline>
</glyph>
<glyph name="T" format="1">
  <advance width="684"/>
  <unicode hex="0054"/>
  <outline>
    <contour>
      <point x="394" y="44" type="line"/>
      <point x="394" y="688" type="line"/>
      <point x="394" y="688"/>
      <point x="290" y="688"/>
      <point x="290" y="688" type="curve"/>
      <point x="290" y="44" type="line"/>
    </contour>
    <contour>
      <point x="394" y="44" type="line"/>
      <point x="290" y="44" type="line"/>
      <point x="280" y="34" type="line"/>
      <point x="190" y="34" type="line"/>
      <point x="190" y="0" type="line"/>
      <point x="190" y="0"/>
      <point x="494" y="0"/>
      <point x="494" y="0" type="curve"/>
      <point x="494" y="34" type="line"/>
      <point x="404" y="34" type="line"/>
    </contour>
    <contour>
      <point x="52" y="580" type="line" smooth="yes"/>
      <point x="52" y="666"/>
      <point x="74" y="688"/>
      <point x="160" y="688" type="curve" smooth="yes"/>
      <point x="524" y="688" type="line" smooth="yes"/>
      <point x="610" y="688"/>
      <point x="632" y="666"/>
      <point x="632" y="580" type="curve" smooth="yes"/>
      <point x="632" y="540" type="line"/>
      <point x="670" y="540" type="line"/>
      <point x="670" y="750" type="line"/>
      <point x="14" y="750" type="line"/>
      <point x="14" y="540" type="line"/>
      <point x="52" y="540" type="line"/>
    </contour>
  </outline>
</glyph>
<glyph name="U" format="1">
  <advance width="818"/>
  <unicode hex="0055"/>
  <outline>
    <contour>
      <point x="410" y="-10" type="curve" smooth="yes"/>
      <point x="592" y="-10"/>
      <point x="694" y="88"/>
      <point x="694" y="300" type="curve" smooth="yes"/>
      <point x="694" y="706" type="line"/>
      <point x="704" y="716" type="line"/>
      <point x="784" y="716" type="line"/>
      <point x="784" y="750" type="line"/>
      <point x="528" y="750" type="line"/>
      <point x="528" y="716" type="line"/>
      <point x="622" y="716" type="line"/>
      <point x="632" y="706" type="line"/>
      <point x="632" y="300" type="line" smooth="yes"/>
      <point x="632" y="115"/>
      <point x="551" y="60"/>
      <point x="435" y="60" type="curve" smooth="yes"/>
      <point x="318" y="60"/>
      <point x="236" y="107"/>
      <point x="236" y="278" type="curve" smooth="yes"/>
      <point x="236" y="706" type="line"/>
      <point x="236" y="706"/>
      <point x="132" y="706"/>
      <point x="132" y="706" type="curve"/>
      <point x="132" y="276" type="line" smooth="yes"/>
      <point x="132" y="62"/>
      <point x="244" y="-10"/>
    </contour>
    <contour>
      <point x="236" y="706" type="line"/>
      <point x="246" y="716" type="line"/>
      <point x="340" y="716" type="line"/>
      <point x="340" y="750" type="line"/>
      <point x="340" y="750"/>
      <point x="42" y="750"/>
      <point x="42" y="750" type="curve"/>
      <point x="42" y="716" type="line"/>
      <point x="122" y="716" type="line"/>
      <point x="132" y="706" type="line"/>
    </contour>
    <contour>
      <point x="414" y="760" type="move" name="top"/>
    </contour>
  </outline>
</glyph>
<glyph name="V" format="1">
  <advance width="755"/>
  <unicode hex="0056"/>
  <outline>
    <contour>
      <point x="675" y="706" type="line"/>
      <point x="607" y="706" type="line"/>
      <point x="404" y="190" type="line"/>
      <point x="394" y="190" type="line"/>
      <point x="198" y="706" type="line"/>
      <point x="84" y="706" type="line"/>
      <point x="368" y="-10" type="line"/>
      <point x="390" y="-10" type="line"/>
    </contour>
    <contour>
      <point x="607" y="706" type="line"/>
      <point x="675" y="706" type="line"/>
      <point x="685" y="716" type="line"/>
      <point x="741" y="716" type="line"/>
      <point x="741" y="750" type="line"/>
      <point x="741" y="750"/>
      <point x="519" y="750"/>
      <point x="519" y="750" type="curve"/>
      <point x="519" y="716" type="line"/>
      <point x="597" y="716" type="line"/>
    </contour>
    <contour>
      <point x="84" y="706" type="line"/>
      <point x="198" y="706" type="line"/>
      <point x="208" y="716" type="line"/>
      <point x="298" y="716" type="line"/>
      <point x="298" y="750" type="line"/>
      <point x="298" y="750"/>
      <point x="14" y="750"/>
      <point x="14" y="750" type="curve"/>
      <point x="14" y="716" type="line"/>
      <point x="74" y="716" type="line"/>
    </contour>
  </outline>
</glyph>
<glyph name="W" format="1">
  <advance width="1087"/>
  <unicode hex="0057"/>
  <outline>
    <contour>
      <point x="598" y="623" type="line"/>
      <point x="534" y="623" type="line"/>
      <point x="380" y="190" type="line"/>
      <point x="370" y="190" type="line"/>
      <point x="198" y="706" type="line"/>
      <point x="84" y="706" type="line"/>
      <point x="340" y="-10" type="line"/>
      <point x="362" y="-10" type="line"/>
      <point x="537" y="474" type="line"/>
      <point x="547" y="474" type="line"/>
    </contour>
    <contour>
      <point x="84" y="706" type="line"/>
      <point x="198" y="706" type="line"/>
      <point x="208" y="716" type="line"/>
      <point x="308" y="716" type="line"/>
      <point x="308" y="750" type="line"/>
      <point x="308" y="750"/>
      <point x="14" y="750"/>
      <point x="14" y="750" type="curve"/>
      <point x="14" y="716" type="line"/>
      <point x="74" y="716" type="line"/>
    </contour>
    <contour>
      <point x="1007" y="706" type="line"/>
      <point x="939" y="706" type="line"/>
      <point x="760" y="190" type="line"/>
      <point x="750" y="190" type="line"/>
      <point x="578" y="706" type="line"/>
      <point x="464" y="706" type="line"/>
      <point x="720" y="-10" type="line"/>
      <point x="742" y="-10" type="line"/>
    </contour>
    <contour>
      <point x="939" y="706" type="line"/>
      <point x="1007" y="706" type="line"/>
      <point x="1017" y="716" type="line"/>
      <point x="1073" y="716" type="line"/>
      <point x="1073" y="750" type="line"/>
      <point x="1073" y="750"/>
      <point x="851" y="750"/>
      <point x="851" y="750" type="curve"/>
      <point x="851" y="716" type="line"/>
      <point x="929" y="716" type="line"/>
    </contour>
    <contour>
      <point x="464" y="706" type="line"/>
      <point x="578" y="706" type="line"/>
      <point x="588" y="716" type="line"/>
      <point x="688" y="716" type="line"/>
      <point x="688" y="750" type="line"/>
      <point x="688" y="750"/>
      <point x="394" y="750"/>
      <point x="394" y="750" type="curve"/>
      <point x="394" y="716" type="line"/>
      <point x="454" y="716" type="line"/>
    </contour>
  </outline>
</glyph>
<glyph name="X" format="1">
  <advance width="832"/>
  <unicode hex="0058"/>
  <outline>
    <contour>
      <point x="636" y="706" type="line"/>
      <point x="710" y="706" type="line"/>
      <point x="720" y="716" type="line"/>
      <point x="790" y="716" type="line"/>
      <point x="790" y="750" type="line"/>
      <point x="790" y="750"/>
      <point x="546" y="750"/>
      <point x="546" y="750" type="curve"/>
      <point x="546" y="716" type="line"/>
      <point x="626" y="716" type="line"/>
    </contour>
    <contour>
      <point x="124" y="706" type="line"/>
      <point x="250" y="706" type="line"/>
      <point x="260" y="716" type="line"/>
      <point x="364" y="716" type="line"/>
      <point x="364" y="750" type="line"/>
      <point x="364" y="750"/>
      <point x="30" y="750"/>
      <point x="30" y="750" type="curve"/>
      <point x="30" y="716" type="line"/>
      <point x="114" y="716" type="line"/>
    </contour>
    <contour>
      <point x="723" y="44" type="line"/>
      <point x="250" y="706" type="line"/>
      <point x="124" y="706" type="line"/>
      <point x="598" y="44" type="line"/>
    </contour>
    <contour>
      <point x="710" y="706" type="line"/>
      <point x="636" y="706" type="line"/>
      <point x="440" y="454" type="line"/>
      <point x="430" y="454" type="line"/>
      <point x="400" y="418" type="line"/>
      <point x="94" y="44" type="line"/>
      <point x="168" y="44" type="line"/>
      <point x="388" y="324" type="line"/>
      <point x="398" y="324" type="line"/>
      <point x="433" y="376" type="line"/>
    </contour>
    <contour>
      <point x="723" y="44" type="line"/>
      <point x="598" y="44" type="line"/>
      <point x="588" y="34" type="line"/>
      <point x="483" y="34" type="line"/>
      <point x="483" y="0" type="line"/>
      <point x="483" y="0"/>
      <point x="818" y="0"/>
      <point x="818" y="0" type="curve"/>
      <point x="818" y="34" type="line"/>
      <point x="733" y="34" type="line"/>
    </contour>
    <contour>
      <point x="168" y="44" type="line"/>
      <point x="94" y="44" type="line"/>
      <point x="84" y="34" type="line"/>
      <point x="14" y="34" type="line"/>
      <point x="14" y="0" type="line"/>
      <point x="14" y="0"/>
      <point x="258" y="0"/>
      <point x="258" y="0" type="curve"/>
      <point x="258" y="34" type="line"/>
      <point x="178" y="34" type="line"/>
    </contour>
  </outline>
</glyph>
<glyph name="Y" format="1">
  <advance width="798"/>
  <unicode hex="0059"/>
  <outline>
    <contour>
      <point x="454" y="44" type="line"/>
      <point x="454" y="314" type="line"/>
      <point x="704" y="706" type="line"/>
      <point x="714" y="716" type="line"/>
      <point x="784" y="716" type="line"/>
      <point x="784" y="750" type="line"/>
      <point x="548" y="750" type="line"/>
      <point x="548" y="716" type="line"/>
      <point x="628" y="716" type="line"/>
      <point x="638" y="706" type="line"/>
      <point x="432" y="370" type="line"/>
      <point x="422" y="370" type="line"/>
      <point x="216" y="706" type="line"/>
      <point x="226" y="716" type="line"/>
      <point x="314" y="716" type="line"/>
      <point x="314" y="750" type="line"/>
      <point x="14" y="750" type="line"/>
      <point x="14" y="716" type="line"/>
      <point x="84" y="716" type="line"/>
      <point x="94" y="706" type="line"/>
      <point x="350" y="314" type="line"/>
      <point x="350" y="44" type="line"/>
      <point x="340" y="34" type="line"/>
      <point x="250" y="34" type="line"/>
      <point x="250" y="0" type="line"/>
      <point x="554" y="0" type="line"/>
      <point x="554" y="34" type="line"/>
      <point x="464" y="34" type="line"/>
    </contour>
    <contour>
      <point x="414" y="760" type="move" name="top"/>
    </contour>
  </outline>
</glyph>
<glyph name="Z" format="1">
  <advance width="692"/>
  <unicode hex="005A"/>
  <outline>
    <contour>
      <point x="654" y="716" type="line"/>
      <point x="514" y="696" type="line"/>
      <point x="514" y="686" type="line"/>
      <point x="34" y="34" type="line"/>
      <point x="174" y="54" type="line"/>
      <point x="174" y="64" type="line"/>
    </contour>
    <contour>
      <point x="514" y="696" type="line"/>
      <point x="654" y="716" type="line"/>
      <point x="654" y="750" type="line"/>
      <point x="80" y="750" type="line"/>
      <point x="80" y="540" type="line"/>
      <point x="118" y="540" type="line"/>
      <point x="118" y="594" type="line" smooth="yes"/>
      <point x="118" y="677"/>
      <point x="146" y="696"/>
      <point x="250" y="696" type="curve" smooth="yes"/>
    </contour>
    <contour>
      <point x="174" y="54" type="line"/>
      <point x="34" y="34" type="line"/>
      <point x="34" y="0" type="line"/>
      <point x="658" y="0" type="line"/>
      <point x="658" y="230" type="line"/>
      <point x="620" y="230" type="line"/>
      <point x="620" y="170" type="line"/>
      <point x="620" y="78"/>
      <point x="592" y="54"/>
      <point x="488" y="54" type="curve" smooth="yes"/>
    </contour>
  </outline>
</glyph>
<glyph name="backslash" format="1">
  <advance width="268"/>
  <unicode hex="005C"/>
  <outline>
    <contour>
      <point x="-12" y="750" type="line"/>
      <point x="28" y="750" type="line"/>
      <point x="268" y="-250" type="line"/>
      <point x="228" y="-250" type="line"/>
    </contour>
  </outline>
</glyph>
<glyph name="asciicircum" format="1">
  <advance width="388"/>
  <unicode hex="005E"/>
  <outline>
    <contour>
      <point x="58" y="207" type="line"/>
      <point x="168" y="329" type="line"/>
      <point x="178" y="329" type="line"/>
      <point x="330" y="207" type="line"/>
      <point x="354" y="221" type="line"/>
      <point x="210" y="417" type="line"/>
      <point x="178" y="417" type="line"/>
      <point x="34" y="221" type="line"/>
    </contour>
    <contour>
      <point x="194" y="520" type="move" name="_top"/>
    </contour>
  </outline>
</glyph>
<glyph name="a" format="1">
  <advance width="506"/>
  <unicode hex="0061"/>
  <outline>
    <contour>
      <point x="276" y="476"/>
      <point x="322" y="450"/>
      <point x="322" y="380" type="curve" smooth="yes"/>
      <point x="322" y="320" type="line"/>
      <point x="184" y="264"/>
      <point x="44" y="220"/>
      <point x="44" y="100" type="curve" smooth="yes"/>
      <point x="44" y="32"/>
      <point x="92" y="-10"/>
      <point x="166" y="-10" type="curve" smooth="yes"/>
      <point x="249" y="-10"/>
      <point x="295" y="53"/>
      <point x="312" y="86" type="curve"/>
      <point x="322" y="86" type="line"/>
      <point x="322" y="64" type="line" smooth="yes"/>
      <point x="322" y="14"/>
      <point x="344" y="-10"/>
      <point x="386" y="-10" type="curve"/>
      <point x="426" y="-10"/>
      <point x="460" y="22"/>
      <point x="504" y="74" type="curve"/>
      <point x="490" y="98" type="line"/>
      <point x="471" y="77"/>
      <point x="456" y="60"/>
      <point x="438" y="60" type="curve"/>
      <point x="416" y="60"/>
      <point x="408" y="76"/>
      <point x="410" y="114" type="curve" smooth="yes"/>
      <point x="422" y="370" type="line" smooth="yes"/>
      <point x="427" y="472"/>
      <point x="355" y="510"/>
      <point x="254" y="510" type="curve" smooth="yes"/>
      <point x="137" y="510"/>
      <point x="59" y="451"/>
      <point x="46" y="372" type="curve"/>
      <point x="56" y="362" type="line"/>
      <point x="152" y="374" type="line"/>
      <point x="172" y="440" type="line" smooth="yes"/>
      <point x="180" y="467"/>
      <point x="200" y="476"/>
      <point x="226" y="476" type="curve" smooth="yes"/>
    </contour>
    <contour>
      <point x="322" y="270" type="line"/>
      <point x="322" y="136" type="line"/>
      <point x="320" y="132"/>
      <point x="277" y="72"/>
      <point x="208" y="72" type="curve" smooth="yes"/>
      <point x="168" y="72"/>
      <point x="144" y="91"/>
      <point x="144" y="133" type="curve" smooth="yes"/>
      <point x="144" y="212"/>
      <point x="239" y="248"/>
      <point x="312" y="280" type="curve"/>
    </contour>
    <contour>
      <point x="254" y="540" type="move" name="top"/>
    </contour>
  </outline>
</glyph>
<glyph name="b" format="1">
  <advance width="578"/>
  <unicode hex="0062"/>
  <outline>
    <contour>
      <point x="188" y="424" type="line"/>
      <point x="188" y="424" type="line"/>
      <point x="188" y="750" type="line"/>
      <point x="178" y="760" type="line"/>
      <point x="14" y="686" type="line"/>
      <point x="30" y="652" type="line"/>
      <point x="84" y="676" type="line" smooth="yes"/>
      <point x="94" y="666" type="line"/>
      <point x="94" y="-10" type="line"/>
      <point x="134" y="-10" type="line"/>
      <point x="134" y="74" type="line"/>
      <point x="188" y="74" type="line"/>
    </contour>
    <contour>
      <point x="144" y="74" type="line"/>
      <point x="182" y="34"/>
      <point x="228" y="-10"/>
      <point x="312" y="-10" type="curve" smooth="yes"/>
      <point x="428" y="-10"/>
      <point x="534" y="98"/>
      <point x="534" y="254" type="curve" smooth="yes"/>
      <point x="534" y="422"/>
      <point x="448" y="510"/>
      <point x="344" y="510" type="curve" smooth="yes"/>
      <point x="276" y="510"/>
      <point x="234" y="472"/>
      <point x="198" y="424" type="curve"/>
      <point x="188" y="424" type="line"/>
      <point x="188" y="372" type="line"/>
      <point x="202" y="396"/>
      <point x="245" y="448"/>
      <point x="296" y="448" type="curve" smooth="yes"/>
      <point x="385" y="448"/>
      <point x="430" y="352"/>
      <point x="430" y="212" type="curve" smooth="yes"/>
      <point x="430" y="108"/>
      <point x="396" y="28"/>
      <point x="314" y="28" type="curve" smooth="yes"/>
      <point x="232" y="28"/>
      <point x="188" y="104"/>
      <point x="188" y="200" type="curve"/>
      <point x="144" y="200" type="line"/>
    </contour>
  </outline>
</glyph>
<glyph name="c" format="1">
  <advance width="498"/>
  <unicode hex="0063"/>
  <outline>
    <contour>
      <point x="274" y="510" type="curve"/>
      <point x="116" y="510"/>
      <point x="44" y="366"/>
      <point x="44" y="240" type="curve" smooth="yes"/>
      <point x="44" y="100"/>
      <point x="124" y="-10"/>
      <point x="260" y="-10" type="curve" smooth="yes"/>
      <point x="406" y="-10"/>
      <point x="456" y="128"/>
      <point x="464" y="200" type="curve"/>
      <point x="440" y="214" type="line"/>
      <point x="420" y="150"/>
      <point x="386" y="82"/>
      <point x="290" y="82" type="curve" smooth="yes"/>
      <point x="176" y="82"/>
      <point x="122" y="182"/>
      <point x="122" y="292" type="curve" smooth="yes"/>
      <point x="122" y="398"/>
      <point x="191" y="470"/>
      <point x="265" y="470" type="curve" smooth="yes"/>
      <point x="294" y="470"/>
      <point x="312" y="458"/>
      <point x="322" y="431" type="curve" smooth="yes"/>
      <point x="352" y="352" type="line"/>
      <point x="448" y="364" type="line"/>
      <point x="458" y="374" type="line"/>
      <point x="440" y="440"/>
      <point x="399" y="510"/>
    </contour>
    <contour>
      <point x="254" y="-10" type="move" name="bottom"/>
    </contour>
  </outline>
</glyph>
<glyph name="d" format="1">
  <advance width="582"/>
  <unicode hex="0064"/>
  <outline>
    <contour>
      <point x="386" y="0" type="line"/>
      <point x="396" y="-10" type="line"/>
      <point x="558" y="60" type="line"/>
      <point x="542" y="94" type="line"/>
      <point x="494" y="74" type="line" smooth="yes"/>
      <point x="484" y="84" type="line"/>
      <point x="484" y="750" type="line"/>
      <point x="474" y="760" type="line"/>
      <point x="310" y="686" type="line"/>
      <point x="326" y="652" type="line"/>
      <point x="380" y="676" type="line" smooth="yes"/>
      <point x="390" y="666" type="line"/>
      <point x="390" y="476" type="line"/>
      <point x="380" y="476" type="line"/>
      <point x="360" y="488"/>
      <point x="326" y="510"/>
      <point x="266" y="510" type="curve" smooth="yes"/>
      <point x="150" y="510"/>
      <point x="44" y="402"/>
      <point x="44" y="246" type="curve" smooth="yes"/>
      <point x="44" y="78"/>
      <point x="130" y="-10"/>
      <point x="234" y="-10" type="curve" smooth="yes"/>
      <point x="302" y="-10"/>
      <point x="350" y="30"/>
      <point x="384" y="76" type="curve"/>
      <point x="394" y="76" type="line"/>
    </contour>
    <contour>
      <point x="282" y="52" type="curve" smooth="yes"/>
      <point x="192" y="52"/>
      <point x="148" y="148"/>
      <point x="148" y="288" type="curve" smooth="yes"/>
      <point x="148" y="392"/>
      <point x="182" y="474"/>
      <point x="264" y="474" type="curve" smooth="yes"/>
      <point x="346" y="474"/>
      <point x="390" y="377"/>
      <point x="390" y="300" type="curve" smooth="yes"/>
      <point x="390" y="126" type="line"/>
      <point x="374" y="96"/>
      <point x="334" y="52"/>
    </contour>
  </outline>
</glyph>
<glyph name="e" format="1">
  <advance width="508"/>
  <unicode hex="0065"/>
  <outline>
    <contour>
      <point x="252" y="470" type="curve" smooth="yes"/>
      <point x="316" y="470"/>
      <point x="348" y="424"/>
      <point x="348" y="360" type="curve"/>
      <point x="338" y="350" type="line"/>
      <point x="118" y="344" type="line"/>
      <point x="118" y="310" type="line"/>
      <point x="456" y="310" type="line"/>
      <point x="456" y="466"/>
      <point x="354" y="510"/>
      <point x="266" y="510" type="curve" smooth="yes"/>
      <point x="116" y="510"/>
      <point x="44" y="364"/>
      <point x="44" y="240" type="curve" smooth="yes"/>
      <point x="44" y="100"/>
      <point x="124" y="-10"/>
      <point x="260" y="-10" type="curve"/>
      <point x="406" y="-10"/>
      <point x="456" y="128"/>
      <point x="464" y="200" type="curve"/>
      <point x="440" y="214" type="line"/>
      <point x="420" y="150"/>
      <point x="386" y="82"/>
      <point x="290" y="82" type="curve" smooth="yes"/>
      <point x="176" y="82"/>
      <point x="122" y="182"/>
      <point x="122" y="292" type="curve" smooth="yes"/>
      <point x="122" y="422"/>
      <point x="196" y="470"/>
    </contour>
    <contour>
      <point x="254" y="540" type="move" name="top"/>
    </contour>
  </outline>
</glyph>
<glyph name="g" format="1">
  <advance width="522"/>
  <unicode hex="0067"/>
  <outline>
    <contour>
      <point x="22" y="-112" type="line"/>
      <point x="22" y="-170"/>
      <point x="50" y="-250"/>
      <point x="190" y="-250" type="curve" smooth="yes"/>
      <point x="344" y="-250"/>
      <point x="504" y="-140"/>
      <point x="504" y="-27" type="curve" smooth="yes"/>
      <point x="504" y="54"/>
      <point x="446" y="74"/>
      <point x="380" y="74" type="curve" smooth="yes"/>
      <point x="209" y="74" type="line" smooth="yes"/>
      <point x="175" y="74"/>
      <point x="158" y="82"/>
      <point x="158" y="100" type="curve" smooth="yes"/>
      <point x="158" y="114"/>
      <point x="166" y="126"/>
      <point x="172" y="134" type="curve" smooth="yes"/>
      <point x="200" y="174" type="line"/>
      <point x="200" y="186" type="line"/>
      <point x="162" y="186" type="line"/>
      <point x="162" y="176" type="line"/>
      <point x="72" y="72" type="line"/>
      <point x="66" y="58" type="line"/>
      <point x="66" y="26"/>
      <point x="76" y="10"/>
      <point x="110" y="0" type="curve"/>
      <point x="110" y="-10" type="line"/>
      <point x="28" y="-98" type="line"/>
    </contour>
    <contour>
      <point x="380" y="-10" type="line" smooth="yes"/>
      <point x="426" y="-10"/>
      <point x="462" y="-10"/>
      <point x="462" y="-46" type="curve" smooth="yes"/>
      <point x="462" y="-106"/>
      <point x="376" y="-164"/>
      <point x="234" y="-164" type="curve" smooth="yes"/>
      <point x="144" y="-164"/>
      <point x="108" y="-132"/>
      <point x="108" y="-88" type="curve" smooth="yes"/>
      <point x="108" y="-74"/>
      <point x="112" y="-64"/>
      <point x="122" y="-48" type="curve" smooth="yes"/>
      <point x="146" y="-10" type="line"/>
    </contour>
    <contour>
      <point x="68" y="338" type="curve" smooth="yes"/>
      <point x="68" y="224"/>
      <point x="164" y="164"/>
      <point x="256" y="164" type="curve" smooth="yes"/>
      <point x="346" y="164"/>
      <point x="442" y="228"/>
      <point x="442" y="338" type="curve" smooth="yes"/>
      <point x="442" y="454"/>
      <point x="346" y="510"/>
      <point x="254" y="510" type="curve" smooth="yes"/>
      <point x="164" y="510"/>
      <point x="68" y="454"/>
    </contour>
    <contour>
      <point x="170" y="366" type="curve"/>
      <point x="170" y="436"/>
      <point x="198" y="474"/>
      <point x="240" y="474" type="curve" smooth="yes"/>
      <point x="299" y="474"/>
      <point x="340" y="416"/>
      <point x="340" y="310" type="curve" smooth="yes"/>
      <point x="340" y="246"/>
      <point x="318" y="200"/>
      <point x="270" y="200" type="curve" smooth="yes"/>
      <point x="216" y="200"/>
      <point x="170" y="252"/>
    </contour>
    <contour>
      <point x="306" y="448" type="line"/>
      <point x="402" y="448" type="line"/>
      <point x="402" y="460" type="line"/>
      <point x="502" y="460" type="line"/>
      <point x="502" y="500" type="line"/>
      <point x="306" y="500" type="line"/>
    </contour>
  </outline>
</glyph>
<glyph name="h" format="1">
  <advance width="598"/>
  <unicode hex="0068"/>
  <outline>
    <contour>
      <point x="114" y="44" type="line"/>
      <point x="104" y="34" type="line"/>
      <point x="36" y="34" type="line"/>
      <point x="36" y="0" type="line"/>
      <point x="280" y="0" type="line"/>
      <point x="280" y="34" type="line"/>
      <point x="218" y="34" type="line"/>
      <point x="208" y="44" type="line"/>
      <point x="208" y="370" type="line"/>
      <point x="222" y="394"/>
      <point x="268" y="448"/>
      <point x="326" y="448" type="curve" smooth="yes"/>
      <point x="384" y="448"/>
      <point x="408" y="408"/>
      <point x="408" y="354" type="curve" smooth="yes"/>
      <point x="408" y="44" type="line"/>
      <point x="398" y="34" type="line"/>
      <point x="336" y="34" type="line"/>
      <point x="336" y="0" type="line"/>
      <point x="574" y="0" type="line"/>
      <point x="574" y="34" type="line"/>
      <point x="512" y="34" type="line"/>
      <point x="502" y="44" type="line"/>
      <point x="502" y="370" type="line" smooth="yes"/>
      <point x="502" y="466"/>
      <point x="442" y="510"/>
      <point x="372" y="510" type="curve" smooth="yes"/>
      <point x="292" y="510"/>
      <point x="246" y="462"/>
      <point x="218" y="424" type="curve"/>
      <point x="208" y="424" type="line"/>
      <point x="208" y="750" type="line"/>
      <point x="198" y="760" type="line"/>
      <point x="34" y="686" type="line"/>
      <point x="50" y="652" type="line"/>
      <point x="104" y="676" type="line" smooth="yes"/>
      <point x="114" y="666" type="line"/>
    </contour>
  </outline>
</glyph>
<glyph name="i" format="1">
  <advance width="304"/>
  <unicode hex="0069"/>
  <outline>
    <contour>
      <point x="98" y="630" type="line"/>
      <point x="218" y="630" type="line"/>
      <point x="218" y="750" type="line"/>
      <point x="98" y="750" type="line"/>
    </contour>
    <contour>
      <point x="114" y="44" type="line"/>
      <point x="104" y="34" type="line"/>
      <point x="36" y="34" type="line"/>
      <point x="36" y="0" type="line"/>
      <point x="280" y="0" type="line"/>
      <point x="280" y="34" type="line"/>
      <point x="218" y="34" type="line"/>
      <point x="208" y="44" type="line"/>
    </contour>
    <contour>
      <point x="50" y="402" type="line"/>
      <point x="104" y="426" type="line" smooth="yes"/>
      <point x="114" y="416" type="line"/>
      <point x="114" y="0" type="line"/>
      <point x="208" y="0" type="line"/>
      <point x="208" y="500" type="line"/>
      <point x="198" y="510" type="line"/>
      <point x="34" y="436" type="line"/>
    </contour>
  </outline>
</glyph>
<glyph name="j" format="1">
  <advance width="290"/>
  <unicode hex="006A"/>
  <outline>
    <contour>
      <point x="98" y="630" type="line"/>
      <point x="218" y="630" type="line"/>
      <point x="218" y="750" type="line"/>
      <point x="98" y="750" type="line"/>
    </contour>
    <contour>
      <point x="210" y="500" type="line"/>
      <point x="200" y="510" type="line"/>
      <point x="34" y="436" type="line"/>
      <point x="50" y="402" type="line"/>
      <point x="96" y="422" type="line" smooth="yes"/>
      <point x="106" y="412" type="line"/>
      <point x="114" y="-90" type="line" smooth="yes"/>
      <point x="115" y="-164"/>
      <point x="88" y="-172"/>
      <point x="36" y="-172" type="curve" smooth="yes"/>
      <point x="-50" y="-172" type="line"/>
      <point x="-66" y="-250" type="line"/>
      <point x="-56" y="-260" type="line"/>
      <point x="10" y="-255" type="line" smooth="yes"/>
      <point x="86" y="-249"/>
      <point x="200" y="-129"/>
      <point x="202" y="6" type="curve" smooth="yes"/>
    </contour>
  </outline>
</glyph>
<glyph name="k" format="1">
  <advance width="562"/>
  <unicode hex="006B"/>
  <outline>
    <contour>
      <point x="548" y="34" type="line"/>
      <point x="506" y="34" type="line"/>
      <point x="490" y="44" type="line"/>
      <point x="290" y="312" type="line"/>
      <point x="366" y="372"/>
      <point x="389" y="393"/>
      <point x="474" y="466" type="curve"/>
      <point x="536" y="466" type="line"/>
      <point x="536" y="500" type="line"/>
      <point x="334" y="500" type="line"/>
      <point x="334" y="466" type="line"/>
      <point x="386" y="466" type="line"/>
      <point x="396" y="456" type="line"/>
      <point x="320" y="396"/>
      <point x="304" y="384"/>
      <point x="218" y="302" type="curve"/>
      <point x="208" y="302" type="line"/>
      <point x="208" y="268" type="line"/>
      <point x="218" y="268" type="line"/>
      <point x="378" y="44" type="line"/>
      <point x="368" y="34" type="line"/>
      <point x="326" y="34" type="line"/>
      <point x="326" y="0" type="line"/>
      <point x="548" y="0" type="line"/>
    </contour>
    <contour>
      <point x="114" y="44" type="line"/>
      <point x="104" y="34" type="line"/>
      <point x="36" y="34" type="line"/>
      <point x="36" y="0" type="line"/>
      <point x="280" y="0" type="line"/>
      <point x="280" y="34" type="line"/>
      <point x="218" y="34" type="line"/>
      <point x="208" y="44" type="line"/>
    </contour>
    <contour>
      <point x="50" y="652" type="line"/>
      <point x="104" y="676" type="line" smooth="yes"/>
      <point x="114" y="666" type="line"/>
      <point x="114" y="0" type="line"/>
      <point x="208" y="0" type="line"/>
      <point x="208" y="750" type="line"/>
      <point x="198" y="760" type="line"/>
      <point x="34" y="686" type="line"/>
    </contour>
  </outline>
</glyph>
<glyph name="l" format="1">
  <advance width="314"/>
  <unicode hex="006C"/>
  <outline>
    <contour>
      <point x="114" y="44" type="line"/>
      <point x="104" y="34" type="line"/>
      <point x="36" y="34" type="line"/>
      <point x="36" y="0" type="line"/>
      <point x="280" y="0" type="line"/>
      <point x="280" y="34" type="line"/>
      <point x="218" y="34" type="line"/>
      <point x="208" y="44" type="line"/>
    </contour>
    <contour>
      <point x="50" y="652" type="line"/>
      <point x="104" y="676" type="line" smooth="yes"/>
      <point x="114" y="666" type="line"/>
      <point x="114" y="0" type="line"/>
      <point x="208" y="0" type="line"/>
      <point x="208" y="750" type="line"/>
      <point x="198" y="760" type="line"/>
      <point x="34" y="686" type="line"/>
    </contour>
  </outline>
</glyph>
<glyph name="m" format="1">
  <advance width="880"/>
  <unicode hex="006D"/>
  <outline>
    <contour>
      <point x="114" y="44" type="line"/>
      <point x="104" y="34" type="line"/>
      <point x="36" y="34" type="line"/>
      <point x="36" y="0" type="line"/>
      <point x="280" y="0" type="line"/>
      <point x="280" y="34" type="line"/>
      <point x="218" y="34" type="line"/>
      <point x="208" y="44" type="line"/>
    </contour>
    <contour>
      <point x="402" y="44" type="line"/>
      <point x="392" y="34" type="line"/>
      <point x="330" y="34" type="line"/>
      <point x="330" y="0" type="line"/>
      <point x="568" y="0" type="line"/>
      <point x="568" y="34" type="line"/>
      <point x="506" y="34" type="line"/>
      <point x="496" y="44" type="line"/>
    </contour>
    <contour>
      <point x="209" y="500" type="line"/>
      <point x="199" y="510" type="line"/>
      <point x="34" y="438" type="line"/>
      <point x="50" y="404" type="line"/>
      <point x="104" y="427" type="line" smooth="yes"/>
      <point x="114" y="417" type="line"/>
      <point x="114" y="0" type="line"/>
      <point x="208" y="0" type="line"/>
      <point x="208" y="376" type="line"/>
      <point x="220" y="396"/>
      <point x="262" y="448"/>
      <point x="320" y="448" type="curve" smooth="yes"/>
      <point x="378" y="448"/>
      <point x="402" y="408"/>
      <point x="402" y="354" type="curve" smooth="yes"/>
      <point x="402" y="0" type="line"/>
      <point x="496" y="0" type="line"/>
      <point x="496" y="370" type="line" smooth="yes"/>
      <point x="496" y="466"/>
      <point x="436" y="510"/>
      <point x="366" y="510" type="curve" smooth="yes"/>
      <point x="286" y="510"/>
      <point x="240" y="462"/>
      <point x="212" y="424" type="curve"/>
      <point x="202" y="424" type="line"/>
    </contour>
    <contour>
      <point x="489" y="370" type="line"/>
      <point x="496" y="370" type="line"/>
      <point x="507" y="397"/>
      <point x="550" y="448"/>
      <point x="608" y="448" type="curve" smooth="yes"/>
      <point x="666" y="448"/>
      <point x="690" y="408"/>
      <point x="690" y="354" type="curve" smooth="yes"/>
      <point x="690" y="0" type="line"/>
      <point x="784" y="0" type="line"/>
      <point x="784" y="370" type="line" smooth="yes"/>
      <point x="784" y="466"/>
      <point x="724" y="510"/>
      <point x="654" y="510" type="curve" smooth="yes"/>
      <point x="574" y="510"/>
      <point x="528" y="462"/>
      <point x="499" y="422" type="curve"/>
      <point x="489" y="422" type="line"/>
    </contour>
    <contour>
      <point x="690" y="44" type="line"/>
      <point x="680" y="34" type="line"/>
      <point x="618" y="34" type="line"/>
      <point x="618" y="0" type="line"/>
      <point x="856" y="0" type="line"/>
      <point x="856" y="34" type="line"/>
      <point x="794" y="34" type="line"/>
      <point x="784" y="44" type="line"/>
    </contour>
  </outline>
</glyph>
<glyph name="n" format="1">
  <advance width="592"/>
  <unicode hex="006E"/>
  <outline>
    <contour>
      <point x="114" y="44" type="line"/>
      <point x="104" y="34" type="line"/>
      <point x="36" y="34" type="line"/>
      <point x="36" y="0" type="line"/>
      <point x="280" y="0" type="line"/>
      <point x="280" y="34" type="line"/>
      <point x="218" y="34" type="line"/>
      <point x="208" y="44" type="line"/>
    </contour>
    <contour>
      <point x="402" y="44" type="line"/>
      <point x="392" y="34" type="line"/>
      <point x="330" y="34" type="line"/>
      <point x="330" y="0" type="line"/>
      <point x="568" y="0" type="line"/>
      <point x="568" y="34" type="line"/>
      <point x="506" y="34" type="line"/>
      <point x="496" y="44" type="line"/>
    </contour>
    <contour>
      <point x="209" y="500" type="line"/>
      <point x="199" y="510" type="line"/>
      <point x="34" y="438" type="line"/>
      <point x="50" y="404" type="line"/>
      <point x="104" y="427" type="line" smooth="yes"/>
      <point x="114" y="417" type="line"/>
      <point x="114" y="0" type="line"/>
      <point x="208" y="0" type="line"/>
      <point x="208" y="376" type="line"/>
      <point x="220" y="396"/>
      <point x="262" y="448"/>
      <point x="320" y="448" type="curve" smooth="yes"/>
      <point x="378" y="448"/>
      <point x="402" y="408"/>
      <point x="402" y="354" type="curve" smooth="yes"/>
      <point x="402" y="0" type="line"/>
      <point x="496" y="0" type="line"/>
      <point x="496" y="370" type="line" smooth="yes"/>
      <point x="496" y="466"/>
      <point x="436" y="510"/>
      <point x="366" y="510" type="curve" smooth="yes"/>
      <point x="286" y="510"/>
      <point x="240" y="462"/>
      <point x="212" y="424" type="curve"/>
      <point x="202" y="424" type="line"/>
    </contour>
    <contour>
      <point x="294" y="520" type="move" name="top"/>
    </contour>
  </outline>
</glyph>
<glyph name="o" format="1">
  <advance width="572"/>
  <unicode hex="006F"/>
  <outline>
    <contour>
      <point x="44" y="250" type="curve" smooth="yes"/>
      <point x="44" y="94"/>
      <point x="142" y="-10"/>
      <point x="286" y="-10" type="curve" smooth="yes"/>
      <point x="432" y="-10"/>
      <point x="528" y="100"/>
      <point x="528" y="252" type="curve"/>
      <point x="528" y="406"/>
      <point x="430" y="510"/>
      <point x="286" y="510" type="curve" smooth="yes"/>
      <point x="140" y="510"/>
      <point x="44" y="399"/>
    </contour>
    <contour>
      <point x="154" y="280" type="curve" smooth="yes"/>
      <point x="154" y="394"/>
      <point x="196" y="472"/>
      <point x="274" y="472" type="curve" smooth="yes"/>
      <point x="375" y="472"/>
      <point x="418" y="356"/>
      <point x="418" y="222" type="curve" smooth="yes"/>
      <point x="418" y="106"/>
      <point x="376" y="28"/>
      <point x="298" y="28" type="curve" smooth="yes"/>
      <point x="198" y="28"/>
      <point x="154" y="144"/>
    </contour>
    <contour>
      <point x="284" y="520" type="move" name="top"/>
    </contour>
  </outline>
</glyph>
<glyph name="p" format="1">
  <advance width="588"/>
  <unicode hex="0070"/>
  <outline>
    <contour>
      <point x="104" y="-206" type="line"/>
      <point x="94" y="-216" type="line"/>
      <point x="26" y="-216" type="line"/>
      <point x="26" y="-250" type="line"/>
      <point x="270" y="-250" type="line"/>
      <point x="270" y="-216" type="line"/>
      <point x="208" y="-216" type="line"/>
      <point x="198" y="-206" type="line"/>
      <point x="198" y="33" type="line"/>
      <point x="229" y="9"/>
      <point x="267" y="-10"/>
      <point x="322" y="-10" type="curve" smooth="yes"/>
      <point x="438" y="-10"/>
      <point x="544" y="98"/>
      <point x="544" y="254" type="curve" smooth="yes"/>
      <point x="544" y="422"/>
      <point x="458" y="510"/>
      <point x="354" y="510" type="curve" smooth="yes"/>
      <point x="286" y="510"/>
      <point x="238" y="472"/>
      <point x="202" y="424" type="curve"/>
      <point x="192" y="424" type="line"/>
      <point x="199" y="500" type="line"/>
      <point x="189" y="510" type="line"/>
      <point x="24" y="438" type="line"/>
      <point x="40" y="404" type="line"/>
      <point x="94" y="427" type="line" smooth="yes"/>
      <point x="104" y="417" type="line"/>
    </contour>
    <contour>
      <point x="198" y="200" type="curve" smooth="yes"/>
      <point x="198" y="372" type="line"/>
      <point x="212" y="396"/>
      <point x="255" y="448"/>
      <point x="306" y="448" type="curve" smooth="yes"/>
      <point x="395" y="448"/>
      <point x="440" y="352"/>
      <point x="440" y="212" type="curve" smooth="yes"/>
      <point x="440" y="108"/>
      <point x="406" y="28"/>
      <point x="324" y="28" type="curve" smooth="yes"/>
      <point x="242" y="28"/>
      <point x="198" y="104"/>
    </contour>
  </outline>
</glyph>
<glyph name="q" format="1">
  <advance width="570"/>
  <unicode hex="0071"/>
  <outline>
    <contour>
      <point x="390" y="-206" type="line"/>
      <point x="380" y="-216" type="line"/>
      <point x="301" y="-216" type="line"/>
      <point x="301" y="-250" type="line"/>
      <point x="556" y="-250" type="line"/>
      <point x="556" y="-216" type="line"/>
      <point x="494" y="-216" type="line"/>
      <point x="484" y="-206" type="line"/>
    </contour>
    <contour>
      <point x="390" y="76" type="line"/>
      <point x="390" y="-250" type="line"/>
      <point x="484" y="-250" type="line"/>
      <point x="484" y="510" type="line"/>
      <point x="444" y="510" type="line"/>
      <point x="444" y="426" type="line"/>
      <point x="390" y="426" type="line"/>
      <point x="390" y="76" type="line"/>
    </contour>
    <contour>
      <point x="434" y="426" type="line"/>
      <point x="396" y="466"/>
      <point x="350" y="510"/>
      <point x="266" y="510" type="curve"/>
      <point x="150" y="510"/>
      <point x="44" y="402"/>
      <point x="44" y="246" type="curve" smooth="yes"/>
      <point x="44" y="78"/>
      <point x="130" y="-10"/>
      <point x="234" y="-10" type="curve" smooth="yes"/>
      <point x="302" y="-10"/>
      <point x="344" y="28"/>
      <point x="380" y="76" type="curve"/>
      <point x="390" y="76" type="line"/>
      <point x="390" y="128" type="line"/>
      <point x="376" y="104"/>
      <point x="333" y="52"/>
      <point x="282" y="52" type="curve" smooth="yes"/>
      <point x="192" y="52"/>
      <point x="148" y="148"/>
      <point x="148" y="288" type="curve" smooth="yes"/>
      <point x="148" y="392"/>
      <point x="182" y="472"/>
      <point x="264" y="472" type="curve" smooth="yes"/>
      <point x="346" y="472"/>
      <point x="390" y="396"/>
      <point x="390" y="301" type="curve"/>
      <point x="434" y="301" type="line"/>
    </contour>
  </outline>
</glyph>
<glyph name="r" format="1">
  <advance width="400"/>
  <unicode hex="0072"/>
  <outline>
    <contour>
      <point x="208" y="0" type="line"/>
      <point x="208" y="330" type="line"/>
      <point x="220" y="380"/>
      <point x="246" y="412"/>
      <point x="308" y="412" type="curve"/>
      <point x="370" y="412" type="line"/>
      <point x="386" y="500" type="line"/>
      <point x="376" y="510" type="line"/>
      <point x="324" y="506" type="line" smooth="yes"/>
      <point x="260" y="501"/>
      <point x="222" y="444"/>
      <point x="208" y="386" type="curve"/>
      <point x="188" y="386" type="line"/>
      <point x="208" y="500" type="line"/>
      <point x="198" y="510" type="line"/>
      <point x="34" y="436" type="line"/>
      <point x="50" y="402" type="line"/>
      <point x="104" y="426" type="line" smooth="yes"/>
      <point x="114" y="416" type="line"/>
      <point x="114" y="0" type="line"/>
    </contour>
    <contour>
      <point x="114" y="44" type="line"/>
      <point x="104" y="34" type="line"/>
      <point x="36" y="34" type="line"/>
      <point x="36" y="0" type="line"/>
      <point x="292" y="0" type="line"/>
      <point x="292" y="34" type="line"/>
      <point x="218" y="34" type="line"/>
      <point x="208" y="44" type="line"/>
    </contour>
  </outline>
</glyph>
<glyph name="s" format="1">
  <advance width="446"/>
  <unicode hex="0073"/>
  <outline>
    <contour>
      <point x="354" y="350" type="line"/>
      <point x="354" y="510" type="line"/>
      <point x="318" y="510" type="line"/>
      <point x="318" y="490" type="line"/>
      <point x="308" y="490" type="line"/>
      <point x="290" y="496"/>
      <point x="250" y="510"/>
      <point x="206" y="510" type="curve" smooth="yes"/>
      <point x="120" y="510"/>
      <point x="56" y="453"/>
      <point x="56" y="376" type="curve" smooth="yes"/>
      <point x="56" y="292"/>
      <point x="108" y="257"/>
      <point x="183" y="214" type="curve" smooth="yes"/>
      <point x="242" y="181"/>
      <point x="304" y="157"/>
      <point x="304" y="96" type="curve" smooth="yes"/>
      <point x="304" y="52"/>
      <point x="275" y="28"/>
      <point x="228" y="28" type="curve" smooth="yes"/>
      <point x="143" y="28"/>
      <point x="90" y="91"/>
      <point x="90" y="160" type="curve" smooth="yes"/>
      <point x="90" y="182" type="line"/>
      <point x="54" y="182" type="line"/>
      <point x="54" y="0" type="line"/>
      <point x="90" y="0" type="line"/>
      <point x="90" y="28" type="line"/>
      <point x="100" y="28" type="line"/>
      <point x="116" y="18"/>
      <point x="158" y="-10"/>
      <point x="228" y="-10" type="curve" smooth="yes"/>
      <point x="324" y="-10"/>
      <point x="392" y="33"/>
      <point x="392" y="128" type="curve" smooth="yes"/>
      <point x="392" y="218"/>
      <point x="330" y="258"/>
      <point x="223" y="312" type="curve" smooth="yes"/>
      <point x="164" y="343"/>
      <point x="136" y="364"/>
      <point x="136" y="406" type="curve" smooth="yes"/>
      <point x="136" y="449"/>
      <point x="163" y="472"/>
      <point x="212" y="472" type="curve" smooth="yes"/>
      <point x="274" y="472"/>
      <point x="318" y="432"/>
      <point x="318" y="384" type="curve" smooth="yes"/>
      <point x="318" y="350" type="line"/>
    </contour>
  </outline>
</glyph>
<glyph name="t" format="1">
  <advance width="334"/>
  <unicode hex="0074"/>
  <outline>
    <contour>
      <point x="128" y="460" type="line"/>
      <point x="306" y="460" type="line"/>
      <point x="306" y="500" type="line"/>
      <point x="128" y="500" type="line"/>
    </contour>
    <contour>
      <point x="190" y="610" type="line"/>
      <point x="180" y="610" type="line"/>
      <point x="24" y="470" type="line"/>
      <point x="34" y="460" type="line"/>
      <point x="96" y="460" type="line"/>
      <point x="96" y="104" type="line" smooth="yes"/>
      <point x="96" y="22"/>
      <point x="126" y="-10"/>
      <point x="188" y="-10" type="curve" smooth="yes"/>
      <point x="250" y="-10"/>
      <point x="296" y="46"/>
      <point x="320" y="74" type="curve"/>
      <point x="304" y="108" type="line"/>
      <point x="286" y="84"/>
      <point x="266" y="60"/>
      <point x="234" y="60" type="curve" smooth="yes"/>
      <point x="200" y="60"/>
      <point x="190" y="80"/>
      <point x="190" y="112" type="curve" smooth="yes"/>
    </contour>
  </outline>
</glyph>
<glyph name="u" format="1">
  <advance width="574"/>
  <unicode hex="0075"/>
  <outline>
    <contour>
      <point x="268" y="52" type="curve" smooth="yes"/>
      <point x="216" y="52"/>
      <point x="190" y="90"/>
      <point x="190" y="144" type="curve" smooth="yes"/>
      <point x="190" y="500" type="line"/>
      <point x="24" y="500" type="line"/>
      <point x="24" y="466" type="line"/>
      <point x="86" y="466" type="line"/>
      <point x="96" y="454" type="line"/>
      <point x="96" y="126" type="line" smooth="yes"/>
      <point x="96" y="30"/>
      <point x="164" y="-10"/>
      <point x="226" y="-10" type="curve" smooth="yes"/>
      <point x="296" y="-10"/>
      <point x="342" y="28"/>
      <point x="376" y="76" type="curve"/>
      <point x="386" y="76" type="line"/>
      <point x="378" y="0" type="line"/>
      <point x="388" y="-10" type="line"/>
      <point x="550" y="60" type="line"/>
      <point x="534" y="94" type="line"/>
      <point x="486" y="74" type="line" smooth="yes"/>
      <point x="476" y="84" type="line"/>
      <point x="476" y="500" type="line"/>
      <point x="310" y="500" type="line"/>
      <point x="310" y="466" type="line"/>
      <point x="372" y="466" type="line"/>
      <point x="382" y="456" type="line"/>
      <point x="382" y="126" type="line"/>
      <point x="366" y="96"/>
      <point x="322" y="52"/>
    </contour>
    <contour>
      <point x="274" y="520" type="move" name="top"/>
    </contour>
  </outline>
</glyph>
<glyph name="v" format="1">
  <advance width="500"/>
  <unicode hex="0076"/>
  <outline>
    <contour>
      <point x="456" y="456" type="line"/>
      <point x="466" y="466" type="line"/>
      <point x="506" y="466" type="line"/>
      <point x="506" y="500" type="line"/>
      <point x="332" y="500" type="line"/>
      <point x="332" y="466" type="line"/>
      <point x="386" y="466" type="line"/>
      <point x="396" y="456" type="line"/>
      <point x="288" y="152" type="line"/>
      <point x="278" y="152" type="line"/>
      <point x="160" y="456" type="line"/>
      <point x="170" y="466" type="line"/>
      <point x="224" y="466" type="line"/>
      <point x="224" y="500" type="line"/>
      <point x="4" y="500" type="line"/>
      <point x="4" y="466" type="line"/>
      <point x="48" y="466" type="line"/>
      <point x="58" y="456" type="line"/>
      <point x="250" y="-10" type="line"/>
      <point x="260" y="-10" type="line"/>
    </contour>
  </outline>
</glyph>
<glyph name="w" format="1">
  <advance width="772"/>
  <unicode hex="0077"/>
  <outline>
    <contour>
      <point x="436" y="410" type="line"/>
      <point x="378" y="410" type="line"/>
      <point x="288" y="152" type="line"/>
      <point x="278" y="152" type="line"/>
      <point x="160" y="456" type="line"/>
      <point x="170" y="466" type="line"/>
      <point x="224" y="466" type="line"/>
      <point x="224" y="500" type="line"/>
      <point x="4" y="500" type="line"/>
      <point x="4" y="466" type="line"/>
      <point x="48" y="466" type="line"/>
      <point x="58" y="456" type="line"/>
      <point x="250" y="-10" type="line"/>
      <point x="260" y="-10" type="line"/>
    </contour>
    <contour>
      <point x="728" y="456" type="line"/>
      <point x="738" y="466" type="line"/>
      <point x="778" y="466" type="line"/>
      <point x="778" y="500" type="line"/>
      <point x="604" y="500" type="line"/>
      <point x="604" y="466" type="line"/>
      <point x="658" y="466" type="line"/>
      <point x="668" y="456" type="line"/>
      <point x="560" y="152" type="line"/>
      <point x="550" y="152" type="line"/>
      <point x="432" y="456" type="line"/>
      <point x="442" y="466" type="line"/>
      <point x="496" y="466" type="line"/>
      <point x="496" y="500" type="line"/>
      <point x="276" y="500" type="line"/>
      <point x="276" y="466" type="line"/>
      <point x="320" y="466" type="line"/>
      <point x="330" y="456" type="line"/>
      <point x="522" y="-10" type="line"/>
      <point x="532" y="-10" type="line"/>
    </contour>
  </outline>
</glyph>
<glyph name="x" format="1">
  <advance width="528"/>
  <unicode hex="0078"/>
  <outline>
    <contour>
      <point x="478" y="34" type="line"/>
      <point x="530" y="34" type="line"/>
      <point x="530" y="0" type="line"/>
      <point x="294" y="0" type="line"/>
      <point x="294" y="34" type="line"/>
      <point x="346" y="34" type="line"/>
      <point x="356" y="44" type="line"/>
      <point x="77" y="456" type="line"/>
      <point x="67" y="466" type="line"/>
      <point x="15" y="466" type="line"/>
      <point x="15" y="500" type="line"/>
      <point x="251" y="500" type="line"/>
      <point x="251" y="466" type="line"/>
      <point x="199" y="466" type="line"/>
      <point x="189" y="456" type="line"/>
      <point x="468" y="44" type="line"/>
    </contour>
    <contour>
      <point x="127" y="44" type="line"/>
      <point x="137" y="34" type="line"/>
      <point x="177" y="34" type="line"/>
      <point x="177" y="0" type="line"/>
      <point x="-2" y="0" type="line"/>
      <point x="-2" y="34" type="line"/>
      <point x="48" y="34" type="line"/>
      <point x="58" y="44" type="line"/>
      <point x="247" y="281" type="line"/>
      <point x="279" y="323" type="line"/>
      <point x="289" y="323" type="line"/>
      <point x="378" y="456" type="line"/>
      <point x="368" y="466" type="line"/>
      <point x="330" y="466" type="line"/>
      <point x="330" y="500" type="line"/>
      <point x="507" y="500" type="line"/>
      <point x="507" y="466" type="line"/>
      <point x="455" y="466" type="line"/>
      <point x="445" y="456" type="line"/>
      <point x="276" y="246" type="line"/>
      <point x="247" y="206" type="line"/>
      <point x="236" y="206" type="line"/>
    </contour>
  </outline>
</glyph>
<glyph name="y" format="1">
  <advance width="544"/>
  <unicode hex="0079"/>
  <outline>
    <contour>
      <point x="250" y="500" type="line"/>
      <point x="4" y="500" type="line"/>
      <point x="4" y="466" type="line"/>
      <point x="58" y="466" type="line"/>
      <point x="68" y="456" type="line"/>
      <point x="242" y="12" type="line"/>
      <point x="208" y="-62" type="line" smooth="yes"/>
      <point x="172" y="-140"/>
      <point x="138" y="-172"/>
      <point x="84" y="-172" type="curve"/>
      <point x="24" y="-172" type="line"/>
      <point x="8" y="-250" type="line"/>
      <point x="18" y="-260" type="line"/>
      <point x="84" y="-257" type="line" smooth="yes"/>
      <point x="160" y="-254"/>
      <point x="185" y="-206"/>
      <point x="228" y="-108" type="curve" smooth="yes"/>
      <point x="474" y="456" type="line"/>
      <point x="484" y="466" type="line"/>
      <point x="550" y="466" type="line"/>
      <point x="550" y="500" type="line"/>
      <point x="334" y="500" type="line"/>
      <point x="334" y="466" type="line"/>
      <point x="404" y="466" type="line"/>
      <point x="414" y="456" type="line"/>
      <point x="296" y="142" type="line"/>
      <point x="286" y="142" type="line"/>
      <point x="170" y="456" type="line"/>
      <point x="180" y="466" type="line"/>
      <point x="250" y="466" type="line"/>
    </contour>
    <contour>
      <point x="284" y="520" type="move" name="top"/>
    </contour>
  </outline>
</glyph>
<glyph name="z" format="1">
  <advance width="476"/>
  <unicode hex="007A"/>
  <outline>
    <contour>
      <point x="168" y="34" type="line" smooth="yes"/>
      <point x="158" y="44" type="line"/>
      <point x="442" y="490" type="line"/>
      <point x="442" y="500" type="line"/>
      <point x="68" y="500" type="line"/>
      <point x="68" y="344" type="line"/>
      <point x="100" y="344" type="line"/>
      <point x="106" y="442"/>
      <point x="142" y="466"/>
      <point x="202" y="466" type="curve"/>
      <point x="302" y="466" type="line" smooth="yes"/>
      <point x="312" y="456" type="line"/>
      <point x="24" y="10" type="line"/>
      <point x="24" y="0" type="line"/>
      <point x="442" y="0" type="line"/>
      <point x="452" y="176" type="line"/>
      <point x="420" y="176" type="line"/>
      <point x="410" y="78"/>
      <point x="376" y="34"/>
      <point x="312" y="34" type="curve"/>
    </contour>
  </outline>
</glyph>
<glyph name="braceleft" format="1">
  <advance width="372"/>
  <unicode hex="007B"/>
  <outline>
    <contour>
      <point x="358" y="-250" type="curve"/>
      <point x="358" y="-216" type="line"/>
      <point x="238" y="-216"/>
      <point x="216" y="-106"/>
      <point x="223" y="62" type="curve" smooth="yes"/>
      <point x="228" y="193"/>
      <point x="201" y="223"/>
      <point x="79" y="245" type="curve"/>
      <point x="79" y="250" type="line"/>
      <point x="14" y="250" type="line"/>
      <point x="14" y="233" type="line"/>
      <point x="142" y="222"/>
      <point x="159" y="150"/>
      <point x="153" y="32" type="curve" smooth="yes"/>
      <point x="145" y="-111"/>
      <point x="172" y="-250"/>
    </contour>
    <contour>
      <point x="358" y="750" type="line"/>
      <point x="172" y="750"/>
      <point x="145" y="611"/>
      <point x="153" y="468" type="curve" smooth="yes"/>
      <point x="159" y="350"/>
      <point x="142" y="278"/>
      <point x="14" y="267" type="curve"/>
      <point x="14" y="250" type="line"/>
      <point x="79" y="250" type="line"/>
      <point x="79" y="255" type="line"/>
      <point x="201" y="277"/>
      <point x="228" y="307"/>
      <point x="223" y="438" type="curve" smooth="yes"/>
      <point x="216" y="606"/>
      <point x="238" y="716"/>
      <point x="358" y="716" type="curve"/>
    </contour>
  </outline>
</glyph>
<glyph name="bar" format="1">
  <advance width="146"/>
  <unicode hex="007C"/>
  <outline>
    <contour>
      <point x="54" y="750" type="line"/>
      <point x="54" y="-250" type="line"/>
      <point x="92" y="-250" type="line"/>
      <point x="92" y="750" type="line"/>
    </contour>
  </outline>
</glyph>
<glyph name="asciitilde" format="1">
  <advance width="388"/>
  <unicode hex="007E"/>
  <outline>
    <contour>
      <point x="354" y="350" type="curve"/>
      <point x="330" y="364" type="line"/>
      <point x="326" y="337"/>
      <point x="310" y="312"/>
      <point x="276" y="312" type="curve"/>
      <point x="225" y="312"/>
      <point x="199" y="372"/>
      <point x="134" y="372" type="curve"/>
      <point x="66" y="372"/>
      <point x="39" y="323"/>
      <point x="34" y="274" type="curve"/>
      <point x="58" y="260" type="line"/>
      <point x="62" y="287"/>
      <point x="78" y="312"/>
      <point x="112" y="312" type="curve"/>
      <point x="163" y="312"/>
      <point x="188" y="252"/>
      <point x="254" y="252" type="curve"/>
      <point x="320" y="252"/>
      <point x="349" y="301"/>
    </contour>
    <contour>
      <point x="194" y="520" type="move" name="_top"/>
    </contour>
  </outline>
</glyph>
<glyph name="sterling" format="1">
  <advance width="600"/>
  <unicode hex="00A3"/>
  <outline>
    <contour>
      <point x="394" y="358" type="line"/>
      <point x="394" y="392" type="line"/>
      <point x="34" y="392" type="line"/>
      <point x="34" y="358" type="line"/>
    </contour>
    <contour>
      <point x="546" y="0" type="line"/>
      <point x="546" y="220" type="line"/>
      <point x="508" y="220" type="line"/>
      <point x="508" y="170" type="line" smooth="yes"/>
      <point x="508" y="84"/>
      <point x="486" y="62"/>
      <point x="400" y="62" type="curve" smooth="yes"/>
      <point x="170" y="62" type="line"/>
      <point x="170" y="72" type="line"/>
      <point x="198" y="97"/>
      <point x="268" y="154"/>
      <point x="268" y="282" type="curve" smooth="yes"/>
      <point x="268" y="392"/>
      <point x="222" y="450"/>
      <point x="222" y="572" type="curve" smooth="yes"/>
      <point x="222" y="653"/>
      <point x="270" y="710"/>
      <point x="360" y="710" type="curve"/>
      <point x="456" y="710"/>
      <point x="507" y="650"/>
      <point x="507" y="528" type="curve" smooth="yes"/>
      <point x="507" y="488" type="line"/>
      <point x="545" y="488" type="line"/>
      <point x="545" y="750" type="line"/>
      <point x="507" y="750" type="line"/>
      <point x="507" y="706" type="line"/>
      <point x="497" y="706" type="line"/>
      <point x="472" y="726"/>
      <point x="426" y="760"/>
      <point x="348" y="760" type="curve" smooth="yes"/>
      <point x="208" y="760"/>
      <point x="124" y="651"/>
      <point x="124" y="520" type="curve" smooth="yes"/>
      <point x="124" y="389"/>
      <point x="184" y="300"/>
      <point x="184" y="184" type="curve"/>
      <point x="184" y="94"/>
      <point x="112" y="62"/>
      <point x="71" y="62" type="curve" smooth="yes"/>
      <point x="34" y="62" type="line"/>
      <point x="34" y="0" type="line"/>
    </contour>
    <contour>
      <point x="323" y="521" type="move" name="top"/>
    </contour>
    <contour>
      <point x="323" y="-11" type="move" name="bottom"/>
    </contour>
  </outline>
</glyph>
<glyph name="yen" format="1">
  <advance width="763"/>
  <unicode hex="00A5"/>
  <outline>
    <contour>
      <point x="646" y="284" type="line"/>
      <point x="160" y="284" type="line"/>
      <point x="160" y="250" type="line"/>
      <point x="646" y="250" type="line"/>
    </contour>
    <contour>
      <point x="310" y="475" type="line"/>
      <point x="160" y="475" type="line"/>
      <point x="160" y="441" type="line"/>
      <point x="310" y="441" type="line"/>
    </contour>
    <contour>
      <point x="506" y="441" type="line"/>
      <point x="646" y="441" type="line"/>
      <point x="646" y="475" type="line"/>
      <point x="506" y="475" type="line"/>
    </contour>
    <component base="Y" xOffset="-6"/>
  </outline>
</glyph>
<glyph name="dieresis" format="1">
  <advance width="268"/>
  <unicode hex="00A8"/>
  <outline>
    <contour>
      <point x="4" y="610" type="line"/>
      <point x="104" y="610" type="line"/>
      <point x="104" y="710" type="line"/>
      <point x="4" y="710" type="line"/>
    </contour>
    <contour>
      <point x="164" y="610" type="line"/>
      <point x="264" y="610" type="line"/>
      <point x="264" y="710" type="line"/>
      <point x="164" y="710" type="line"/>
    </contour>
    <contour>
      <point x="134" y="520" type="move" name="_top"/>
    </contour>
  </outline>
</glyph>
<glyph name="ordfeminine" format="1">
  <advance width="377"/>
  <unicode hex="00AA"/>
  <outline>
    <contour>
      <point x="224" y="735"/>
      <point x="255" y="716"/>
      <point x="255" y="663" type="curve" smooth="yes"/>
      <point x="255" y="619" type="line"/>
      <point x="134" y="567"/>
      <point x="44" y="545"/>
      <point x="44" y="456" type="curve" smooth="yes"/>
      <point x="44" y="406"/>
      <point x="80" y="375"/>
      <point x="134" y="375" type="curve" smooth="yes"/>
      <point x="196" y="375"/>
      <point x="233" y="427"/>
      <point x="248" y="446" type="curve"/>
      <point x="255" y="446" type="line"/>
      <point x="255" y="429" type="line" smooth="yes"/>
      <point x="255" y="399"/>
      <point x="262" y="375"/>
      <point x="294" y="375" type="curve"/>
      <point x="320" y="375"/>
      <point x="342" y="399"/>
      <point x="375" y="436" type="curve"/>
      <point x="365" y="455" type="line"/>
      <point x="351" y="439"/>
      <point x="339" y="420"/>
      <point x="325" y="420" type="curve"/>
      <point x="309" y="420"/>
      <point x="301" y="432"/>
      <point x="302" y="461" type="curve" smooth="yes"/>
      <point x="310" y="646" type="line" smooth="yes"/>
      <point x="313" y="721"/>
      <point x="275" y="760"/>
      <point x="200" y="760" type="curve" smooth="yes"/>
      <point x="113" y="760"/>
      <point x="55" y="717"/>
      <point x="46" y="657" type="curve"/>
      <point x="53" y="649" type="line"/>
      <point x="109" y="659" type="line"/>
      <point x="121" y="702" type="line" smooth="yes"/>
      <point x="126" y="721"/>
      <point x="143" y="735"/>
      <point x="179" y="735" type="curve" smooth="yes"/>
    </contour>
    <contour>
      <point x="255" y="582" type="line"/>
      <point x="255" y="483" type="line"/>
      <point x="244" y="466"/>
      <point x="197" y="420"/>
      <point x="150" y="420" type="curve"/>
      <point x="116" y="420"/>
      <point x="98" y="441"/>
      <point x="98" y="472" type="curve"/>
      <point x="98" y="535"/>
      <point x="174" y="556"/>
      <point x="248" y="589" type="curve"/>
    </contour>
    <contour>
      <point x="254" y="540" type="move" name="top"/>
    </contour>
  </outline>
</glyph>
<glyph name="cedilla" format="1">
  <advance width="268"/>
  <unicode hex="00B8"/>
  <outline>
    <contour>
      <point x="155" y="0" type="line"/>
      <point x="117" y="0" type="line"/>
      <point x="68" y="-108" type="line"/>
      <point x="78" y="-118" type="line"/>
      <point x="85" y="-115"/>
      <point x="102" y="-110"/>
      <point x="124" y="-110" type="curve" smooth="yes"/>
      <point x="154" y="-110"/>
      <point x="178" y="-126"/>
      <point x="178" y="-156" type="curve"/>
      <point x="178" y="-190"/>
      <point x="148" y="-210"/>
      <point x="104" y="-210" type="curve"/>
      <point x="82" y="-210"/>
      <point x="56" y="-204"/>
      <point x="34" y="-192" type="curve"/>
      <point x="20" y="-216" type="line"/>
      <point x="42" y="-230"/>
      <point x="76" y="-240"/>
      <point x="114" y="-240" type="curve"/>
      <point x="200" y="-240"/>
      <point x="248" y="-196"/>
      <point x="248" y="-142" type="curve" smooth="yes"/>
      <point x="248" y="-97"/>
      <point x="220" y="-66"/>
      <point x="168" y="-66" type="curve" smooth="yes"/>
      <point x="156" y="-66"/>
      <point x="148" y="-68"/>
      <point x="140" y="-70" type="curve"/>
      <point x="130" y="-60" type="line"/>
    </contour>
    <contour>
      <point x="134" y="-10" type="move" name="_bottom"/>
    </contour>
  </outline>
</glyph>
<glyph name="guillemotright" format="1">
  <advance width="578"/>
  <unicode hex="00BB"/>
  <outline>
    <contour>
      <point x="294" y="0" type="line"/>
      <point x="574" y="245" type="line"/>
      <point x="574" y="255" type="line"/>
      <point x="294" y="500" type="line"/>
      <point x="274" y="480" type="line"/>
      <point x="464" y="255" type="line"/>
      <point x="464" y="245" type="line"/>
      <point x="274" y="19" type="line"/>
    </contour>
    <contour>
      <point x="54" y="0" type="line"/>
      <point x="334" y="245" type="line"/>
      <point x="334" y="255" type="line"/>
      <point x="54" y="500" type="line"/>
      <point x="34" y="480" type="line"/>
      <point x="224" y="255" type="line"/>
      <point x="224" y="245" type="line"/>
      <point x="34" y="19" type="line"/>
    </contour>
  </outline>
</glyph>
<glyph name="AE" format="1">
  <advance width="1023"/>
  <unicode hex="00C6"/>
  <outline>
    <contour>
      <point x="521" y="304" type="line"/>
      <point x="289" y="304" type="line"/>
      <point x="289" y="250" type="line"/>
      <point x="521" y="250" type="line"/>
    </contour>
    <contour>
      <point x="515" y="45" type="line"/>
      <point x="504" y="34" type="line"/>
      <point x="414" y="34" type="line"/>
      <point x="414" y="0" type="line"/>
      <point x="969" y="0" type="line"/>
      <point x="969" y="220" type="line"/>
      <point x="931" y="220" type="line"/>
      <point x="931" y="170" type="line" smooth="yes"/>
      <point x="931" y="84"/>
      <point x="909" y="62"/>
      <point x="823" y="62" type="curve" smooth="yes"/>
      <point x="619" y="62" type="line"/>
      <point x="619" y="360" type="line"/>
      <point x="811" y="360" type="line"/>
      <point x="821" y="350" type="line"/>
      <point x="821" y="278" type="line"/>
      <point x="859" y="278" type="line"/>
      <point x="859" y="496" type="line"/>
      <point x="821" y="496" type="line"/>
      <point x="821" y="424" type="line"/>
      <point x="811" y="414" type="line"/>
      <point x="619" y="414" type="line"/>
      <point x="619" y="688" type="line"/>
      <point x="795" y="688" type="line" smooth="yes"/>
      <point x="881" y="688"/>
      <point x="903" y="666"/>
      <point x="903" y="580" type="curve" smooth="yes"/>
      <point x="903" y="540" type="line"/>
      <point x="941" y="540" type="line"/>
      <point x="941" y="750" type="line"/>
      <point x="427" y="750" type="line"/>
      <point x="427" y="716" type="line"/>
      <point x="517" y="716" type="line"/>
      <point x="527" y="706" type="line"/>
      <point x="99" y="44" type="line"/>
      <point x="86" y="34" type="line"/>
      <point x="14" y="34" type="line"/>
      <point x="14" y="0" type="line"/>
      <point x="250" y="0" type="line"/>
      <point x="250" y="34" type="line"/>
      <point x="172" y="34" type="line"/>
      <point x="165" y="44" type="line"/>
      <point x="505" y="582" type="line"/>
      <point x="515" y="582" type="line"/>
    </contour>
    <contour>
      <point x="724" y="760" type="move" name="top"/>
    </contour>
  </outline>
</glyph>
<glyph name="multiply" format="1">
  <advance width="570"/>
  <unicode hex="00D7"/>
  <outline>
    <contour>
      <point x="475" y="147" type="line"/>
      <point x="317" y="304" type="line"/>
      <point x="317" y="318" type="line"/>
      <point x="475" y="476" type="line"/>
      <point x="449" y="502" type="line"/>
      <point x="291" y="344" type="line"/>
      <point x="277" y="344" type="line"/>
      <point x="120" y="502" type="line"/>
      <point x="95" y="477" type="line"/>
      <point x="253" y="320" type="line"/>
      <point x="253" y="306" type="line"/>
      <point x="95" y="148" type="line"/>
      <point x="121" y="122" type="line"/>
      <point x="279" y="280" type="line"/>
      <point x="293" y="280" type="line"/>
      <point x="450" y="122" type="line"/>
    </contour>
  </outline>
</glyph>
<glyph name="germandbls" format="1">
  <advance width="608"/>
  <unicode hex="00DF"/>
  <outline>
    <contour>
      <point x="396" y="612" type="curve"/>
      <point x="396" y="557"/>
      <point x="362" y="507"/>
      <point x="336" y="468" type="curve" smooth="yes"/>
      <point x="316" y="438"/>
      <point x="298" y="412"/>
      <point x="298" y="365" type="curve"/>
      <point x="298" y="294"/>
      <point x="338" y="270"/>
      <point x="414" y="226" type="curve" smooth="yes"/>
      <point x="473" y="192"/>
      <point x="506" y="160"/>
      <point x="506" y="102" type="curve"/>
      <point x="506" y="54"/>
      <point x="477" y="28"/>
      <point x="434" y="28" type="curve" smooth="yes"/>
      <point x="365" y="28"/>
      <point x="332" y="91"/>
      <point x="332" y="160" type="curve" smooth="yes"/>
      <point x="332" y="182" type="line"/>
      <point x="296" y="182" type="line"/>
      <point x="296" y="0" type="line"/>
      <point x="332" y="0" type="line"/>
      <point x="332" y="28" type="line"/>
      <point x="342" y="28" type="line"/>
      <point x="358" y="18"/>
      <point x="390" y="-10"/>
      <point x="460" y="-10" type="curve"/>
      <point x="526" y="-10"/>
      <point x="594" y="35"/>
      <point x="594" y="128" type="curve"/>
      <point x="594" y="218"/>
      <point x="538" y="266"/>
      <point x="458" y="312" type="curve" smooth="yes"/>
      <point x="390" y="351"/>
      <point x="360" y="373"/>
      <point x="360" y="416" type="curve"/>
      <point x="360" y="445"/>
      <point x="374" y="465"/>
      <point x="395" y="483" type="curve" smooth="yes"/>
      <point x="440" y="523"/>
      <point x="484" y="560"/>
      <point x="484" y="632" type="curve"/>
      <point x="484" y="696"/>
      <point x="434" y="760"/>
      <point x="330" y="760" type="curve" smooth="yes"/>
      <point x="194" y="760"/>
      <point x="156" y="624"/>
      <point x="114" y="500" type="curve"/>
      <point x="34" y="500" type="line"/>
      <point x="34" y="460" type="line"/>
      <point x="114" y="460" type="line"/>
      <point x="114" y="44" type="line"/>
      <point x="104" y="34" type="line"/>
      <point x="34" y="34" type="line"/>
      <point x="34" y="0" type="line"/>
      <point x="208" y="0" type="line"/>
      <point x="208" y="602" type="line"/>
      <point x="208" y="666"/>
      <point x="236" y="712"/>
      <point x="302" y="712" type="curve" smooth="yes"/>
      <point x="368" y="712"/>
      <point x="396" y="666"/>
    </contour>
  </outline>
</glyph>
<glyph name="ae" format="1">
  <advance width="805"/>
  <unicode hex="00E6"/>
  <outline>
    <contour>
      <point x="322" y="380" type="curve" smooth="yes"/>
      <point x="322" y="320" type="line"/>
      <point x="184" y="264"/>
      <point x="44" y="220"/>
      <point x="44" y="100" type="curve" smooth="yes"/>
      <point x="44" y="32"/>
      <point x="92" y="-10"/>
      <point x="166" y="-10" type="curve" smooth="yes"/>
      <point x="266" y="-10"/>
      <point x="326" y="56"/>
      <point x="351" y="136" type="curve"/>
      <point x="361" y="136" type="line"/>
      <point x="392" y="34"/>
      <point x="474" y="-10"/>
      <point x="557" y="-10" type="curve"/>
      <point x="703" y="-10"/>
      <point x="753" y="128"/>
      <point x="761" y="200" type="curve"/>
      <point x="737" y="214" type="line"/>
      <point x="717" y="150"/>
      <point x="683" y="82"/>
      <point x="587" y="82" type="curve" smooth="yes"/>
      <point x="473" y="82"/>
      <point x="419" y="182"/>
      <point x="419" y="292" type="curve" smooth="yes"/>
      <point x="419" y="422"/>
      <point x="493" y="470"/>
      <point x="549" y="470" type="curve" smooth="yes"/>
      <point x="613" y="470"/>
      <point x="645" y="424"/>
      <point x="645" y="360" type="curve"/>
      <point x="635" y="350" type="line"/>
      <point x="415" y="344" type="line"/>
      <point x="415" y="310" type="line"/>
      <point x="753" y="310" type="line"/>
      <point x="753" y="466"/>
      <point x="651" y="510"/>
      <point x="563" y="510" type="curve" smooth="yes"/>
      <point x="489" y="510"/>
      <point x="442" y="476"/>
      <point x="410" y="435" type="curve"/>
      <point x="400" y="435" type="line"/>
      <point x="376" y="480"/>
      <point x="336" y="510"/>
      <point x="254" y="510" type="curve" smooth="yes"/>
      <point x="137" y="510"/>
      <point x="59" y="451"/>
      <point x="46" y="372" type="curve"/>
      <point x="56" y="362" type="line"/>
      <point x="152" y="374" type="line"/>
      <point x="172" y="440" type="line" smooth="yes"/>
      <point x="180" y="467"/>
      <point x="200" y="476"/>
      <point x="226" y="476" type="curve" smooth="yes"/>
      <point x="276" y="476"/>
      <point x="322" y="450"/>
    </contour>
    <contour>
      <point x="322" y="270" type="line"/>
      <point x="322" y="156" type="line"/>
      <point x="320" y="132"/>
      <point x="277" y="72"/>
      <point x="208" y="72" type="curve" smooth="yes"/>
      <point x="168" y="72"/>
      <point x="144" y="91"/>
      <point x="144" y="133" type="curve" smooth="yes"/>
      <point x="144" y="212"/>
      <point x="239" y="248"/>
      <point x="312" y="280" type="curve"/>
    </contour>
  </outline>
</glyph>
<glyph name="dotlessi" format="1">
  <advance width="304"/>
  <unicode hex="0131"/>
  <outline>
    <contour>
      <point x="114" y="44" type="line"/>
      <point x="104" y="34" type="line"/>
      <point x="36" y="34" type="line"/>
      <point x="36" y="0" type="line"/>
      <point x="280" y="0" type="line"/>
      <point x="280" y="34" type="line"/>
      <point x="218" y="34" type="line"/>
      <point x="208" y="44" type="line"/>
    </contour>
    <contour>
      <point x="50" y="402" type="line"/>
      <point x="104" y="426" type="line" smooth="yes"/>
      <point x="114" y="416" type="line"/>
      <point x="114" y="0" type="line"/>
      <point x="208" y="0" type="line"/>
      <point x="208" y="500" type="line"/>
      <point x="198" y="510" type="line"/>
      <point x="34" y="436" type="line"/>
    </contour>
    <contour>
      <point x="168" y="540" type="move" name="top"/>
    </contour>
  </outline>
</glyph>
<glyph name="OE" format="1">
  <advance width="1082"/>
  <unicode hex="0152"/>
  <outline>
    <contour>
      <point x="514" y="706" type="line"/>
      <point x="514" y="45" type="line"/>
      <point x="503" y="34" type="line"/>
      <point x="413" y="34" type="line"/>
      <point x="269" y="34"/>
      <point x="174" y="170"/>
      <point x="174" y="380" type="curve" smooth="yes"/>
      <point x="174" y="580"/>
      <point x="264" y="716"/>
      <point x="414" y="716" type="curve"/>
      <point x="504" y="716" type="line"/>
    </contour>
    <contour>
      <point x="618" y="360" type="line"/>
      <point x="870" y="360" type="line"/>
      <point x="880" y="350" type="line"/>
      <point x="880" y="278" type="line"/>
      <point x="918" y="278" type="line"/>
      <point x="918" y="496" type="line"/>
      <point x="880" y="496" type="line"/>
      <point x="880" y="424" type="line"/>
      <point x="870" y="414" type="line"/>
      <point x="618" y="414" type="line"/>
      <point x="618" y="688" type="line"/>
      <point x="854" y="688" type="line" smooth="yes"/>
      <point x="940" y="688"/>
      <point x="962" y="666"/>
      <point x="962" y="580" type="curve" smooth="yes"/>
      <point x="962" y="540" type="line"/>
      <point x="1000" y="540" type="line"/>
      <point x="1000" y="750" type="line"/>
      <point x="414" y="750" type="line"/>
      <point x="207" y="750"/>
      <point x="54" y="592"/>
      <point x="54" y="364" type="curve"/>
      <point x="54" y="134"/>
      <point x="186" y="0"/>
      <point x="413" y="0" type="curve"/>
      <point x="1028" y="0" type="line"/>
      <point x="1028" y="220" type="line"/>
      <point x="990" y="220" type="line"/>
      <point x="990" y="170" type="line" smooth="yes"/>
      <point x="990" y="84"/>
      <point x="968" y="62"/>
      <point x="882" y="62" type="curve" smooth="yes"/>
      <point x="618" y="62" type="line"/>
    </contour>
  </outline>
</glyph>
<glyph name="oe" format="1">
  <advance width="913"/>
  <unicode hex="0153"/>
  <outline>
    <contour>
      <point x="44" y="250" type="curve" smooth="yes"/>
      <point x="44" y="94"/>
      <point x="142" y="-10"/>
      <point x="286" y="-10" type="curve" smooth="yes"/>
      <point x="374" y="-10"/>
      <point x="442" y="30"/>
      <point x="483" y="95" type="curve"/>
      <point x="493" y="95" type="line"/>
      <point x="530" y="28"/>
      <point x="588" y="-10"/>
      <point x="666" y="-10" type="curve"/>
      <point x="812" y="-10"/>
      <point x="862" y="128"/>
      <point x="870" y="200" type="curve"/>
      <point x="846" y="214" type="line"/>
      <point x="826" y="150"/>
      <point x="792" y="82"/>
      <point x="696" y="82" type="curve" smooth="yes"/>
      <point x="582" y="82"/>
      <point x="528" y="182"/>
      <point x="528" y="292" type="curve" smooth="yes"/>
      <point x="528" y="422"/>
      <point x="602" y="470"/>
      <point x="658" y="470" type="curve" smooth="yes"/>
      <point x="722" y="470"/>
      <point x="754" y="424"/>
      <point x="754" y="360" type="curve"/>
      <point x="744" y="350" type="line"/>
      <point x="524" y="344" type="line"/>
      <point x="524" y="310" type="line"/>
      <point x="862" y="310" type="line"/>
      <point x="862" y="466"/>
      <point x="760" y="510"/>
      <point x="672" y="510" type="curve" smooth="yes"/>
      <point x="595" y="510"/>
      <point x="536" y="464"/>
      <point x="498" y="403" type="curve"/>
      <point x="488" y="403" type="line"/>
      <point x="447" y="470"/>
      <point x="375" y="510"/>
      <point x="286" y="510" type="curve" smooth="yes"/>
      <point x="140" y="510"/>
      <point x="44" y="399"/>
    </contour>
    <contour>
      <point x="154" y="280" type="curve" smooth="yes"/>
      <point x="154" y="394"/>
      <point x="196" y="472"/>
      <point x="274" y="472" type="curve" smooth="yes"/>
      <point x="375" y="472"/>
      <point x="418" y="356"/>
      <point x="418" y="222" type="curve" smooth="yes"/>
      <point x="418" y="106"/>
      <point x="376" y="28"/>
      <point x="298" y="28" type="curve" smooth="yes"/>
      <point x="198" y="28"/>
      <point x="154" y="144"/>
    </contour>
  </outline>
</glyph>
<glyph name="ring" format="1">
  <advance width="268"/>
  <unicode hex="02DA"/>
  <outline>
    <contour>
      <point x="178" y="574"/>
      <point x="204" y="608"/>
      <point x="204" y="650" type="curve" smooth="yes"/>
      <point x="204" y="692"/>
      <point x="178" y="726"/>
      <point x="134" y="726" type="curve" smooth="yes"/>
      <point x="90" y="726"/>
      <point x="64" y="692"/>
      <point x="64" y="650" type="curve" smooth="yes"/>
      <point x="64" y="608"/>
      <point x="90" y="574"/>
      <point x="134" y="574" type="curve" smooth="yes"/>
    </contour>
    <contour>
      <point x="134" y="760" type="curve" smooth="yes"/>
      <point x="196" y="760"/>
      <point x="244" y="714"/>
      <point x="244" y="650" type="curve" smooth="yes"/>
      <point x="244" y="586"/>
      <point x="196" y="540"/>
      <point x="134" y="540" type="curve" smooth="yes"/>
      <point x="70" y="540"/>
      <point x="24" y="586"/>
      <point x="24" y="650" type="curve" smooth="yes"/>
      <point x="24" y="714"/>
      <point x="70" y="760"/>
    </contour>
    <contour>
      <point x="134" y="520" type="move" name="_top"/>
    </contour>
  </outline>
</glyph>
<glyph name="tilde" format="1">
  <advance width="268"/>
  <unicode hex="02DC"/>
  <outline>
    <contour>
      <point x="294" y="688" type="curve"/>
      <point x="270" y="702" type="line"/>
      <point x="266" y="675"/>
      <point x="250" y="650"/>
      <point x="216" y="650" type="curve"/>
      <point x="165" y="650"/>
      <point x="139" y="710"/>
      <point x="74" y="710" type="curve"/>
      <point x="6" y="710"/>
      <point x="-21" y="661"/>
      <point x="-26" y="612" type="curve"/>
      <point x="-2" y="598" type="line"/>
      <point x="2" y="625"/>
      <point x="18" y="650"/>
      <point x="52" y="650" type="curve"/>
      <point x="103" y="650"/>
      <point x="128" y="590"/>
      <point x="194" y="590" type="curve"/>
      <point x="260" y="590"/>
      <point x="289" y="639"/>
    </contour>
    <contour>
      <point x="134" y="520" type="move" name="_top"/>
    </contour>
  </outline>
</glyph>
<glyph name="emdash" format="1">
  <advance width="728"/>
  <unicode hex="2014"/>
  <outline>
    <contour>
      <point x="14" y="233" type="line"/>
      <point x="714" y="233" type="line"/>
      <point x="714" y="267" type="line"/>
      <point x="14" y="267" type="line"/>
    </contour>
  </outline>
</glyph>
<glyph name="bullet" format="1">
  <advance width="338"/>
  <unicode hex="2022"/>
  <outline>
    <contour>
      <point x="169" y="187" type="curve" smooth="yes"/>
      <point x="239" y="187"/>
      <point x="294" y="242"/>
      <point x="294" y="312" type="curve" smooth="yes"/>
      <point x="294" y="382"/>
      <point x="239" y="437"/>
      <point x="169" y="437" type="curve" smooth="yes"/>
      <point x="99" y="437"/>
      <point x="44" y="382"/>
      <point x="44" y="312" type="curve" smooth="yes"/>
      <point x="44" y="242"/>
      <point x="99" y="187"/>
    </contour>
  </outline>
</glyph>
<glyph name="ellipsis" format="1">
  <advance width="668"/>
  <unicode hex="2026"/>
  <outline>
    <contour>
      <point x="74" y="0" type="line"/>
      <point x="194" y="0" type="line"/>
      <point x="194" y="120" type="line"/>
      <point x="74" y="120" type="line"/>
    </contour>
    <contour>
      <point x="274" y="0" type="line"/>
      <point x="394" y="0" type="line"/>
      <point x="394" y="120" type="line"/>
      <point x="274" y="120" type="line"/>
    </contour>
    <contour>
      <point x="474" y="0" type="line"/>
      <point x="594" y="0" type="line"/>
      <point x="594" y="120" type="line"/>
      <point x="474" y="120" type="line"/>
    </contour>
  </outline>
</glyph>
<glyph name="guilsinglright" format="1">
  <advance width="337"/>
  <unicode hex="203A"/>
  <outline>
    <contour>
      <point x="54" y="0" type="line"/>
      <point x="333" y="245" type="line"/>
      <point x="333" y="255" type="line"/>
      <point x="54" y="500" type="line"/>
      <point x="34" y="480" type="line"/>
      <point x="223" y="255" type="line"/>
      <point x="223" y="245" type="line"/>
      <point x="34" y="19" type="line"/>
    </contour>
  </outline>
</glyph>
<glyph name="Euro" format="1">
  <advance width="750"/>
  <unicode hex="20AC"/>
  <outline>
    <contour>
      <point x="716" y="66" type="curve"/>
      <point x="716" y="110" type="line"/>
      <point x="664" y="68"/>
      <point x="610" y="28"/>
      <point x="474" y="28" type="curve"/>
      <point x="290" y="28"/>
      <point x="144" y="149"/>
      <point x="144" y="375" type="curve" smooth="yes"/>
      <point x="144" y="601"/>
      <point x="290" y="722"/>
      <point x="474" y="722" type="curve"/>
      <point x="610" y="722"/>
      <point x="670" y="674"/>
      <point x="716" y="640" type="curve"/>
      <point x="716" y="684" type="line"/>
      <point x="694" y="704"/>
      <point x="618" y="760"/>
      <point x="474" y="760" type="curve"/>
      <point x="266" y="760"/>
      <point x="106" y="607"/>
      <point x="106" y="375" type="curve" smooth="yes"/>
      <point x="106" y="143"/>
      <point x="266" y="-10"/>
      <point x="474" y="-10" type="curve"/>
      <point x="618" y="-10"/>
      <point x="690" y="44"/>
    </contour>
    <contour>
      <point x="14" y="281" type="line"/>
      <point x="616" y="281" type="line"/>
      <point x="616" y="315" type="line"/>
      <point x="14" y="315" type="line"/>
    </contour>
    <contour>
      <point x="14" y="436" type="line"/>
      <point x="616" y="436" type="line"/>
      <point x="616" y="470" type="line"/>
      <point x="14" y="470" type="line"/>
    </contour>
    <contour>
      <point x="443" y="759" type="move" name="top"/>
    </contour>
    <contour>
      <point x="443" y="-11" type="move" name="bottom"/>
    </contour>
  </outline>
</glyph>
<glyph name="numero" format="1">
  <advance width="1248"/>
  <unicode hex="2116"/>
  <outline>
    <contour>
      <point x="839" y="0" type="line"/>
      <point x="1188" y="0" type="line"/>
      <point x="1188" y="34" type="line"/>
      <point x="839" y="34" type="line"/>
    </contour>
    <component base="N"/>
    <component base="ordmasculine" xOffset="779" yOffset="-193"/>
  </outline>
</glyph>
<glyph name="fi" format="1">
  <advance width="630"/>
  <unicode hex="FB01"/>
  <outline>
    <contour>
      <point x="440" y="44" type="line"/>
      <point x="430" y="34" type="line"/>
      <point x="362" y="34" type="line"/>
      <point x="362" y="0" type="line"/>
      <point x="606" y="0" type="line"/>
      <point x="606" y="34" type="line"/>
      <point x="544" y="34" type="line"/>
      <point x="534" y="44" type="line"/>
    </contour>
    <contour>
      <point x="344" y="460" type="line"/>
      <point x="430" y="460" type="line" smooth="yes"/>
      <point x="440" y="450" type="line"/>
      <point x="440" y="0" type="line"/>
      <point x="534" y="0" type="line"/>
      <point x="534" y="500" type="line"/>
      <point x="524" y="510" type="line"/>
      <point x="464" y="502"/>
      <point x="406" y="500"/>
      <point x="344" y="500" type="curve"/>
    </contour>
    <component base="f" xOffset="-6"/>
  </outline>
</glyph>
<glyph name="fl" format="1">
  <advance width="630"/>
  <unicode hex="FB02"/>
  <outline>
    <contour>
      <point x="440" y="44" type="line"/>
      <point x="430" y="34" type="line"/>
      <point x="362" y="34" type="line"/>
      <point x="362" y="0" type="line"/>
      <point x="606" y="0" type="line"/>
      <point x="606" y="34" type="line"/>
      <point x="544" y="34" type="line"/>
      <point x="534" y="44" type="line"/>
    </contour>
    <contour>
      <point x="34" y="460" type="line"/>
      <point x="344" y="460" type="line"/>
      <point x="344" y="500" type="line"/>
      <point x="34" y="500" type="line"/>
    </contour>
    <contour>
      <point x="114" y="44" type="line"/>
      <point x="104" y="34" type="line"/>
      <point x="34" y="34" type="line"/>
      <point x="34" y="0" type="line"/>
      <point x="302" y="0" type="line"/>
      <point x="302" y="34" type="line"/>
      <point x="218" y="34" type="line"/>
      <point x="208" y="44" type="line"/>
    </contour>
    <contour>
      <point x="430" y="676" type="line"/>
      <point x="440" y="666" type="line"/>
      <point x="440" y="0" type="line"/>
      <point x="534" y="0" type="line"/>
      <point x="534" y="750" type="line"/>
      <point x="524" y="760" type="line"/>
      <point x="291" y="752" type="line" smooth="yes"/>
      <point x="183" y="748"/>
      <point x="154" y="634"/>
      <point x="114" y="500" type="curve"/>
      <point x="114" y="38" type="line"/>
      <point x="208" y="38" type="line"/>
      <point x="208" y="500" type="line"/>
      <point x="200" y="610" type="line" smooth="yes"/>
      <point x="197" y="650"/>
      <point x="210" y="671"/>
      <point x="260" y="672" type="curve" smooth="yes"/>
    </contour>
  </outline>
</glyph>
<glyph name="Th" format="1">
  <advance width="1116"/>
  <outline>
    <contour>
      <point x="632" y="44" type="line"/>
      <point x="622" y="34" type="line"/>
      <point x="554" y="34" type="line"/>
      <point x="554" y="0" type="line"/>
      <point x="798" y="0" type="line"/>
      <point x="798" y="34" type="line"/>
      <point x="736" y="34" type="line"/>
      <point x="726" y="44" type="line"/>
      <point x="726" y="370" type="line"/>
      <point x="740" y="394"/>
      <point x="786" y="448"/>
      <point x="844" y="448" type="curve" smooth="yes"/>
      <point x="902" y="448"/>
      <point x="926" y="408"/>
      <point x="926" y="354" type="curve" smooth="yes"/>
      <point x="926" y="44" type="line"/>
      <point x="916" y="34" type="line"/>
      <point x="854" y="34" type="line"/>
      <point x="854" y="0" type="line"/>
      <point x="1092" y="0" type="line"/>
      <point x="1092" y="34" type="line"/>
      <point x="1030" y="34" type="line"/>
      <point x="1020" y="44" type="line"/>
      <point x="1020" y="370" type="line" smooth="yes"/>
      <point x="1020" y="466"/>
      <point x="960" y="510"/>
      <point x="890" y="510" type="curve" smooth="yes"/>
      <point x="810" y="510"/>
      <point x="764" y="462"/>
      <point x="736" y="424" type="curve"/>
      <point x="726" y="424" type="line"/>
      <point x="726" y="750" type="line"/>
      <point x="632" y="750" type="line"/>
    </contour>
    <component base="T" xOffset="-6"/>
  </outline>
</glyph>
<glyph name="ffl" format="1">
  <advance width="958"/>
  <outline>
    <contour>
      <point x="34" y="460" type="line"/>
      <point x="362" y="460" type="line"/>
      <point x="362" y="500" type="line"/>
      <point x="34" y="500" type="line"/>
    </contour>
    <contour>
      <point x="371" y="672" type="line"/>
      <point x="387" y="750" type="line"/>
      <point x="377" y="760" type="line"/>
      <point x="291" y="752" type="line" smooth="yes"/>
      <point x="183" y="742"/>
      <point x="154" y="634"/>
      <point x="114" y="500" type="curve"/>
      <point x="114" y="38" type="line"/>
      <point x="208" y="38" type="line"/>
      <point x="208" y="500" type="line"/>
      <point x="200" y="610" type="line" smooth="yes"/>
      <point x="197" y="650"/>
      <point x="210" y="672"/>
      <point x="260" y="672" type="curve" smooth="yes"/>
    </contour>
    <contour>
      <point x="114" y="44" type="line"/>
      <point x="104" y="34" type="line"/>
      <point x="34" y="34" type="line"/>
      <point x="34" y="0" type="line"/>
      <point x="302" y="0" type="line"/>
      <point x="302" y="34" type="line"/>
      <point x="218" y="34" type="line"/>
      <point x="208" y="44" type="line"/>
    </contour>
    <contour>
      <point x="442" y="44" type="line"/>
      <point x="432" y="34" type="line"/>
      <point x="362" y="34" type="line"/>
      <point x="362" y="0" type="line"/>
      <point x="630" y="0" type="line"/>
      <point x="630" y="34" type="line"/>
      <point x="546" y="34" type="line"/>
      <point x="536" y="44" type="line"/>
    </contour>
    <component base="fl" xOffset="322"/>
  </outline>
</glyph>
<glyph name="velvetyne" format="1">
  <advance width="1279"/>
  <outline>
    <contour>
      <point x="633" y="496" type="line"/>
      <point x="565" y="496" type="line"/>
      <point x="448" y="184" type="line"/>
      <point x="438" y="184" type="line"/>
      <point x="238" y="706" type="line"/>
      <point x="124" y="706" type="line"/>
      <point x="408" y="-10" type="line"/>
      <point x="430" y="-10" type="line"/>
    </contour>
    <contour>
      <point x="565" y="496" type="line"/>
      <point x="633" y="496" type="line"/>
      <point x="643" y="506" type="line"/>
      <point x="699" y="506" type="line"/>
      <point x="699" y="540" type="line"/>
      <point x="699" y="540"/>
      <point x="473" y="540"/>
      <point x="473" y="540" type="curve"/>
      <point x="473" y="506" type="line"/>
      <point x="555" y="506" type="line"/>
    </contour>
    <contour>
      <point x="124" y="706" type="line"/>
      <point x="238" y="706" type="line"/>
      <point x="248" y="716" type="line"/>
      <point x="338" y="716" type="line"/>
      <point x="338" y="750" type="line"/>
      <point x="338" y="750"/>
      <point x="54" y="750"/>
      <point x="54" y="750" type="curve"/>
      <point x="54" y="716" type="line"/>
      <point x="114" y="716" type="line"/>
    </contour>
    <contour>
      <point x="833" y="44" type="line"/>
      <point x="833" y="688" type="line"/>
      <point x="833" y="688"/>
      <point x="729" y="688"/>
      <point x="729" y="688" type="curve"/>
      <point x="729" y="44" type="line"/>
    </contour>
    <contour>
      <point x="833" y="44" type="line"/>
      <point x="729" y="44" type="line"/>
      <point x="719" y="34" type="line"/>
      <point x="629" y="34" type="line"/>
      <point x="629" y="0" type="line"/>
      <point x="629" y="0"/>
      <point x="933" y="0"/>
      <point x="933" y="0" type="curve"/>
      <point x="933" y="34" type="line"/>
      <point x="843" y="34" type="line"/>
    </contour>
    <contour>
      <point x="430" y="580" type="line" smooth="yes"/>
      <point x="430" y="666"/>
      <point x="452" y="688"/>
      <point x="538" y="688" type="curve" smooth="yes"/>
      <point x="1119" y="688" type="line" smooth="yes"/>
      <point x="1205" y="688"/>
      <point x="1227" y="666"/>
      <point x="1227" y="580" type="curve" smooth="yes"/>
      <point x="1227" y="540" type="line"/>
      <point x="1265" y="540" type="line"/>
      <point x="1265" y="750" type="line"/>
      <point x="392" y="750" type="line"/>
      <point x="392" y="540" type="line"/>
      <point x="430" y="540" type="line"/>
    </contour>
    <contour>
      <point x="833" y="350" type="line"/>
      <point x="1105" y="350" type="line"/>
      <point x="1115" y="340" type="line"/>
      <point x="1115" y="268" type="line"/>
      <point x="1153" y="268" type="line"/>
      <point x="1153" y="486" type="line"/>
      <point x="1115" y="486" type="line"/>
      <point x="1115" y="414" type="line"/>
      <point x="1105" y="404" type="line"/>
      <point x="833" y="404" type="line"/>
    </contour>
  </outline>
</glyph>
